<svg width="37" height="37" viewBox="0 0 37 37" fill="none" xmlns="http://www.w3.org/2000/svg">
<path fill-rule="evenodd" clip-rule="evenodd" d="M4.2193 8.43859C6.54955 8.43859 8.43859 6.54955 8.43859 4.2193C8.43859 1.88904 6.54955 0 4.2193 0C1.88904 0 0 1.88904 0 4.2193C0 6.54955 1.88904 8.43859 4.2193 8.43859ZM8.43868 14.6053C8.43868 12.2751 6.54963 10.386 4.21938 10.386C1.88913 10.386 8.13943e-05 12.2751 8.13943e-05 14.6053V26.3769C8.13943e-05 28.7072 1.88913 30.5962 4.21938 30.5962H7.1654V32.7745C7.1654 35.1048 9.05444 36.9938 11.3847 36.9938C13.7149 36.9938 15.604 35.1048 15.604 32.7745V26.3769C15.604 24.0467 13.7149 22.1576 11.3847 22.1576H8.43868V14.6053ZM12.6579 14.6053C12.6579 12.2751 14.547 10.386 16.8772 10.386H32.2315C34.5617 10.386 36.4508 12.2751 36.4508 14.6053C36.4508 16.9356 34.5617 18.8246 32.2315 18.8246H28.5613V32.7807C28.5613 35.111 26.6723 37 24.342 37C22.0118 37 20.1227 35.111 20.1227 32.7807V18.8246H16.8772C14.547 18.8246 12.6579 16.9356 12.6579 14.6053Z" fill="#9B9C9C"/>
</svg>
