<svg width="46" height="46" viewBox="0 0 46 46" fill="none" xmlns="http://www.w3.org/2000/svg">
<path d="M30.4363 17.8057L22.9997 25.2423L15.563 17.8057C15.3855 17.6282 15.1749 17.4875 14.943 17.3914C14.7112 17.2954 14.4627 17.246 14.2117 17.246C13.9608 17.246 13.7123 17.2954 13.4804 17.3914C13.2486 17.4875 13.0379 17.6282 12.8605 17.8057C12.683 17.9831 12.5423 18.1938 12.4462 18.4256C12.3502 18.6575 12.3008 18.906 12.3008 19.1569C12.3008 19.4079 12.3502 19.6564 12.4462 19.8882C12.5423 20.1201 12.683 20.3307 12.8605 20.5082L21.658 29.3057C22.4055 30.0532 23.613 30.0532 24.3605 29.3057L33.158 20.5082C33.3357 20.3309 33.4766 20.1202 33.5728 19.8884C33.669 19.6565 33.7185 19.408 33.7185 19.1569C33.7185 18.9059 33.669 18.6573 33.5728 18.4255C33.4766 18.1936 33.3357 17.983 33.158 17.8057C32.4105 17.0773 31.1838 17.0582 30.4363 17.8057V17.8057Z" fill="#89898A"/>
</svg>
