<svg width="33" height="33" viewBox="0 0 33 33" fill="none" xmlns="http://www.w3.org/2000/svg">
<g clip-path="url(#clip0_166_1892)">
<path d="M19.8334 9H13.3955C10.968 9 9 10.968 9 13.3955V19.8334C9 22.2609 10.968 24.2289 13.3955 24.2289H19.8334C22.2609 24.2289 24.2289 22.2609 24.2289 19.8334V13.3955C24.23 10.968 22.2619 9 19.8334 9ZM22.827 19.9467C22.827 21.5578 21.5211 22.8648 19.9089 22.8648H13.32C11.7089 22.8648 10.4019 21.5588 10.4019 19.9467V13.3588C10.4019 11.7477 11.7078 10.4407 13.32 10.4407H19.9089C21.52 10.4407 22.827 11.7466 22.827 13.3588V19.9477V19.9467Z" fill="#9B9C9C"/>
<path d="M16.6144 12.7009C14.4318 12.7009 12.6632 14.4706 12.6632 16.6521C12.6632 18.8337 14.4328 20.6033 16.6144 20.6033C18.796 20.6033 20.5656 18.8337 20.5656 16.6521C20.5656 14.4706 18.796 12.7009 16.6144 12.7009V12.7009ZM16.6144 19.2144C15.1996 19.2144 14.0532 18.067 14.0532 16.6532C14.0532 15.2394 15.2006 14.092 16.6144 14.092C18.0282 14.092 19.1756 15.2394 19.1756 16.6532C19.1756 18.067 18.0282 19.2144 16.6144 19.2144Z" fill="#9B9C9C"/>
<path d="M20.6984 13.472C21.207 13.472 21.6193 13.0597 21.6193 12.5511C21.6193 12.0424 21.207 11.6301 20.6984 11.6301C20.1898 11.6301 19.7775 12.0424 19.7775 12.5511C19.7775 13.0597 20.1898 13.472 20.6984 13.472Z" fill="#9B9C9C"/>
</g>
<rect x="0.589286" y="0.589286" width="31.8214" height="31.8214" rx="15.9107" stroke="#9B9C9C" stroke-width="1.17857"/>
<defs>
<clipPath id="clip0_166_1892">
<rect width="15.23" height="15.23" fill="white" transform="translate(9 9)"/>
</clipPath>
</defs>
</svg>
