<svg width="242" height="48" viewBox="0 0 242 48" fill="none" xmlns="http://www.w3.org/2000/svg">
<mask id="path-1-outside-1_977_2506" maskUnits="userSpaceOnUse" x="108.353" y="10.8448" width="35" height="37" fill="black">
<rect fill="white" x="108.353" y="10.8448" width="35" height="37"/>
<path fill-rule="evenodd" clip-rule="evenodd" d="M119.752 16.9601C118.462 14.3083 115.443 13.1188 113.008 14.3033C110.573 15.4878 109.645 18.5977 110.935 21.2495L117.451 34.6455L119.787 39.4471L120.993 41.926C121.41 42.7828 122.007 43.487 122.707 44.0078C122.978 44.2303 123.277 44.4238 123.604 44.5828C124.265 44.9044 124.969 45.051 125.671 45.0408C126.372 45.051 127.076 44.9044 127.737 44.5828C128.064 44.4238 128.364 44.2303 128.634 44.0078C129.334 43.487 129.932 42.7828 130.349 41.926L131.554 39.4471L133.89 34.6455L140.407 21.2495C141.697 18.5977 140.768 15.4878 138.334 14.3033C135.899 13.1188 132.879 14.3083 131.589 16.9601L127.408 25.5545L125.671 29.1262L123.933 25.5545L119.752 16.9601Z"/>
</mask>
<path fill-rule="evenodd" clip-rule="evenodd" d="M119.752 16.9601C118.462 14.3083 115.443 13.1188 113.008 14.3033C110.573 15.4878 109.645 18.5977 110.935 21.2495L117.451 34.6455L119.787 39.4471L120.993 41.926C121.41 42.7828 122.007 43.487 122.707 44.0078C122.978 44.2303 123.277 44.4238 123.604 44.5828C124.265 44.9044 124.969 45.051 125.671 45.0408C126.372 45.051 127.076 44.9044 127.737 44.5828C128.064 44.4238 128.364 44.2303 128.634 44.0078C129.334 43.487 129.932 42.7828 130.349 41.926L131.554 39.4471L133.89 34.6455L140.407 21.2495C141.697 18.5977 140.768 15.4878 138.334 14.3033C135.899 13.1188 132.879 14.3083 131.589 16.9601L127.408 25.5545L125.671 29.1262L123.933 25.5545L119.752 16.9601Z" fill="url(#paint0_linear_977_2506)"/>
<path d="M113.008 14.3033L112.133 12.5048L113.008 14.3033ZM119.752 16.9601L117.954 17.835V17.835L119.752 16.9601ZM110.935 21.2495L109.136 22.1244V22.1244L110.935 21.2495ZM117.451 34.6455L115.653 35.5204L115.653 35.5204L117.451 34.6455ZM119.787 39.4471L121.585 38.5722V38.5722L119.787 39.4471ZM120.993 41.926L119.194 42.8009L119.194 42.8009L120.993 41.926ZM122.707 44.0077L123.977 42.4626C123.952 42.4422 123.927 42.4223 123.901 42.4031L122.707 44.0077ZM123.604 44.5828L122.729 46.3813L122.729 46.3813L123.604 44.5828ZM125.671 45.0408L125.7 43.041C125.68 43.0407 125.661 43.0407 125.641 43.041L125.671 45.0408ZM127.737 44.5828L128.612 46.3813L128.612 46.3813L127.737 44.5828ZM128.634 44.0077L127.441 42.4031C127.415 42.4223 127.389 42.4422 127.365 42.4626L128.634 44.0077ZM130.349 41.926L128.55 41.0511V41.0511L130.349 41.926ZM131.554 39.4471L133.353 40.322L131.554 39.4471ZM133.89 34.6455L135.689 35.5204V35.5204L133.89 34.6455ZM140.407 21.2495L138.608 20.3747V20.3747L140.407 21.2495ZM138.334 14.3033L139.208 12.5048V12.5048L138.334 14.3033ZM131.589 16.9601L129.79 16.0852V16.0852L131.589 16.9601ZM127.408 25.5545L129.207 26.4294L129.207 26.4294L127.408 25.5545ZM125.671 29.1262L123.872 30.0011C124.207 30.6894 124.905 31.1262 125.671 31.1262C126.436 31.1262 127.134 30.6894 127.469 30.0011L125.671 29.1262ZM123.933 25.5545L122.135 26.4294L122.135 26.4294L123.933 25.5545ZM113.883 16.1018C115.183 15.4692 117.075 16.0289 117.954 17.835L121.551 16.0852C119.849 12.5876 115.702 10.7683 112.133 12.5048L113.883 16.1018ZM112.733 20.3747C111.854 18.5686 112.582 16.7343 113.883 16.1018L112.133 12.5048C108.563 14.2412 107.435 18.6268 109.136 22.1244L112.733 20.3747ZM119.25 33.7706L112.733 20.3747L109.136 22.1244L115.653 35.5204L119.25 33.7706ZM121.585 38.5722L119.25 33.7706L115.653 35.5204L117.988 40.322L121.585 38.5722ZM122.791 41.0511L121.585 38.5722L117.988 40.322L119.194 42.8009L122.791 41.0511ZM123.901 42.4031C123.456 42.0726 123.067 41.6182 122.791 41.0511L119.194 42.8009C119.752 43.9475 120.557 44.9014 121.513 45.6124L123.901 42.4031ZM121.437 45.5529C121.828 45.874 122.26 46.1529 122.729 46.3813L124.479 42.7843C124.295 42.6947 124.128 42.5865 123.977 42.4626L121.437 45.5529ZM122.729 46.3813C123.682 46.8449 124.697 47.0552 125.7 47.0406L125.641 43.041C125.242 43.0469 124.848 42.964 124.479 42.7843L122.729 46.3813ZM126.862 42.7843C126.493 42.964 126.1 43.0469 125.7 43.041L125.641 47.0406C126.644 47.0552 127.659 46.8449 128.612 46.3813L126.862 42.7843ZM127.365 42.4626C127.214 42.5865 127.047 42.6947 126.862 42.7843L128.612 46.3813C129.082 46.1529 129.514 45.874 129.904 45.5529L127.365 42.4626ZM129.828 45.6124C130.784 44.9014 131.589 43.9475 132.147 42.8009L128.55 41.0511C128.274 41.6182 127.885 42.0726 127.441 42.4031L129.828 45.6124ZM132.147 42.8009L133.353 40.322L129.756 38.5722L128.55 41.0511L132.147 42.8009ZM133.353 40.322L135.689 35.5204L132.092 33.7706L129.756 38.5722L133.353 40.322ZM135.689 35.5204L142.205 22.1244L138.608 20.3747L132.092 33.7706L135.689 35.5204ZM142.205 22.1244C143.907 18.6268 142.778 14.2412 139.208 12.5048L137.459 16.1018C138.759 16.7343 139.487 18.5686 138.608 20.3747L142.205 22.1244ZM139.208 12.5048C135.639 10.7683 131.492 12.5876 129.79 16.0852L133.387 17.835C134.266 16.0289 136.158 15.4692 137.459 16.1018L139.208 12.5048ZM129.79 16.0852L125.61 24.6797L129.207 26.4294L133.387 17.835L129.79 16.0852ZM125.61 24.6797L123.872 28.2513L127.469 30.0011L129.207 26.4294L125.61 24.6797ZM122.135 26.4294L123.872 30.0011L127.469 28.2513L125.732 24.6797L122.135 26.4294ZM117.954 17.835L122.135 26.4294L125.732 24.6797L121.551 16.0852L117.954 17.835Z" fill="white" mask="url(#path-1-outside-1_977_2506)"/>
<mask id="path-3-outside-2_977_2506" maskUnits="userSpaceOnUse" x="142.06" y="-9.15527e-05" width="14" height="47" fill="black">
<rect fill="white" x="142.06" y="-9.15527e-05" width="14" height="47"/>
<path fill-rule="evenodd" clip-rule="evenodd" d="M148.963 11.8057C151.671 11.8057 153.866 9.61057 153.866 6.90279C153.866 4.195 151.671 1.99991 148.963 1.99991C146.255 1.99991 144.06 4.195 144.06 6.90279C144.06 9.61057 146.255 11.8057 148.963 11.8057ZM153.866 18.9714C153.866 16.2637 151.671 14.0686 148.963 14.0686C146.255 14.0686 144.06 16.2637 144.06 18.9714V32.6502L144.06 37.5531V40.0843C144.06 42.7921 146.255 44.9872 148.963 44.9872C151.671 44.9872 153.866 42.7921 153.866 40.0843V32.6502L153.866 27.7473V18.9714Z"/>
</mask>
<path fill-rule="evenodd" clip-rule="evenodd" d="M148.963 11.8057C151.671 11.8057 153.866 9.61057 153.866 6.90279C153.866 4.195 151.671 1.99991 148.963 1.99991C146.255 1.99991 144.06 4.195 144.06 6.90279C144.06 9.61057 146.255 11.8057 148.963 11.8057ZM153.866 18.9714C153.866 16.2637 151.671 14.0686 148.963 14.0686C146.255 14.0686 144.06 16.2637 144.06 18.9714V32.6502L144.06 37.5531V40.0843C144.06 42.7921 146.255 44.9872 148.963 44.9872C151.671 44.9872 153.866 42.7921 153.866 40.0843V32.6502L153.866 27.7473V18.9714Z" fill="url(#paint1_linear_977_2506)"/>
<path d="M144.06 32.6502H142.06V32.6502L144.06 32.6502ZM144.06 37.5531H146.06H144.06ZM153.866 32.6502H155.866V32.6502L153.866 32.6502ZM153.866 27.7473H151.866V27.7473L153.866 27.7473ZM151.866 6.90279C151.866 8.506 150.566 9.80566 148.963 9.80566V13.8057C152.775 13.8057 155.866 10.7151 155.866 6.90279H151.866ZM148.963 3.99991C150.566 3.99991 151.866 5.29957 151.866 6.90279H155.866C155.866 3.09043 152.775 -9.15527e-05 148.963 -9.15527e-05V3.99991ZM146.06 6.90279C146.06 5.29957 147.36 3.99991 148.963 3.99991V-9.15527e-05C145.15 -9.15527e-05 142.06 3.09043 142.06 6.90279H146.06ZM148.963 9.80566C147.36 9.80566 146.06 8.506 146.06 6.90279H142.06C142.06 10.7151 145.15 13.8057 148.963 13.8057V9.80566ZM148.963 16.0686C150.566 16.0686 151.866 17.3682 151.866 18.9714H155.866C155.866 15.1591 152.775 12.0686 148.963 12.0686V16.0686ZM146.06 18.9714C146.06 17.3682 147.36 16.0686 148.963 16.0686V12.0686C145.15 12.0686 142.06 15.1591 142.06 18.9714H146.06ZM146.06 32.6502V18.9714H142.06V32.6502H146.06ZM146.06 37.5531L146.06 32.6502L142.06 32.6502L142.06 37.5531H146.06ZM146.06 40.0843V37.5531H142.06V40.0843H146.06ZM148.963 42.9872C147.36 42.9872 146.06 41.6875 146.06 40.0843H142.06C142.06 43.8966 145.15 46.9872 148.963 46.9872V42.9872ZM151.866 40.0843C151.866 41.6875 150.566 42.9872 148.963 42.9872V46.9872C152.775 46.9872 155.866 43.8966 155.866 40.0843H151.866ZM151.866 32.6502V40.0843H155.866V32.6502H151.866ZM151.866 27.7473L151.866 32.6502L155.866 32.6502L155.866 27.7473L151.866 27.7473ZM151.866 18.9714V27.7473H155.866V18.9714H151.866Z" fill="white" mask="url(#path-3-outside-2_977_2506)"/>
<mask id="path-5-outside-3_977_2506" maskUnits="userSpaceOnUse" x="185.185" y="10.8448" width="56" height="37" fill="black">
<rect fill="white" x="185.185" y="10.8448" width="56" height="37"/>
<path fill-rule="evenodd" clip-rule="evenodd" d="M189.84 14.3033C192.275 13.1188 195.294 14.3083 196.584 16.9601L200.765 25.5545L202.503 29.1262L204.24 25.5545L208.421 16.9601C208.848 16.083 209.464 15.366 210.185 14.8418C210.444 14.6346 210.728 14.4535 211.037 14.3033C211.697 13.9821 212.4 13.8355 213.1 13.8452C213.801 13.8352 214.505 13.9818 215.166 14.3033C215.475 14.4536 215.759 14.6349 216.018 14.8423C216.739 15.3664 217.355 16.0833 217.781 16.9601L221.962 25.5546L223.7 29.1262L225.437 25.5546L229.618 16.9601C230.908 14.3083 233.928 13.1188 236.363 14.3033C238.798 15.4878 239.726 18.5977 238.436 21.2496L231.919 34.6456L229.584 39.4471L228.378 41.926C227.961 42.7828 227.363 43.487 226.664 44.0078C226.393 44.2303 226.093 44.4239 225.766 44.5828C225.105 44.9045 224.401 45.0511 223.7 45.0408C222.999 45.0511 222.294 44.9045 221.633 44.5828C221.306 44.4239 221.007 44.2303 220.736 44.0078C220.036 43.487 219.439 42.7828 219.022 41.926L217.816 39.4471L215.48 34.6456L213.101 29.7551L210.722 34.6455L208.387 39.4471L207.181 41.926C206.764 42.7828 206.166 43.487 205.466 44.0078C205.196 44.2303 204.896 44.4238 204.569 44.5828C203.908 44.9044 203.204 45.051 202.503 45.0408C201.802 45.051 201.097 44.9044 200.436 44.5828C200.109 44.4238 199.81 44.2303 199.539 44.0078C198.839 43.487 198.242 42.7828 197.825 41.926L196.619 39.4471L194.283 34.6455L187.767 21.2495C186.477 18.5977 187.405 15.4878 189.84 14.3033Z"/>
</mask>
<path fill-rule="evenodd" clip-rule="evenodd" d="M189.84 14.3033C192.275 13.1188 195.294 14.3083 196.584 16.9601L200.765 25.5545L202.503 29.1262L204.24 25.5545L208.421 16.9601C208.848 16.083 209.464 15.366 210.185 14.8418C210.444 14.6346 210.728 14.4535 211.037 14.3033C211.697 13.9821 212.4 13.8355 213.1 13.8452C213.801 13.8352 214.505 13.9818 215.166 14.3033C215.475 14.4536 215.759 14.6349 216.018 14.8423C216.739 15.3664 217.355 16.0833 217.781 16.9601L221.962 25.5546L223.7 29.1262L225.437 25.5546L229.618 16.9601C230.908 14.3083 233.928 13.1188 236.363 14.3033C238.798 15.4878 239.726 18.5977 238.436 21.2496L231.919 34.6456L229.584 39.4471L228.378 41.926C227.961 42.7828 227.363 43.487 226.664 44.0078C226.393 44.2303 226.093 44.4239 225.766 44.5828C225.105 44.9045 224.401 45.0511 223.7 45.0408C222.999 45.0511 222.294 44.9045 221.633 44.5828C221.306 44.4239 221.007 44.2303 220.736 44.0078C220.036 43.487 219.439 42.7828 219.022 41.926L217.816 39.4471L215.48 34.6456L213.101 29.7551L210.722 34.6455L208.387 39.4471L207.181 41.926C206.764 42.7828 206.166 43.487 205.466 44.0078C205.196 44.2303 204.896 44.4238 204.569 44.5828C203.908 44.9044 203.204 45.051 202.503 45.0408C201.802 45.051 201.097 44.9044 200.436 44.5828C200.109 44.4238 199.81 44.2303 199.539 44.0078C198.839 43.487 198.242 42.7828 197.825 41.926L196.619 39.4471L194.283 34.6455L187.767 21.2495C186.477 18.5977 187.405 15.4878 189.84 14.3033Z" fill="url(#paint2_linear_977_2506)"/>
<path d="M196.584 16.9601L198.383 16.0852V16.0852L196.584 16.9601ZM189.84 14.3033L188.965 12.5048H188.965L189.84 14.3033ZM200.765 25.5545L198.967 26.4294L198.967 26.4294L200.765 25.5545ZM202.503 29.1262L200.704 30.0011C201.039 30.6894 201.737 31.1262 202.503 31.1262C203.268 31.1262 203.966 30.6894 204.301 30.0011L202.503 29.1262ZM204.24 25.5545L206.039 26.4294L206.039 26.4294L204.24 25.5545ZM208.421 16.9601L210.22 17.835V17.835L208.421 16.9601ZM210.185 14.8418L211.361 16.4598C211.386 16.4414 211.41 16.4226 211.435 16.4031L210.185 14.8418ZM211.037 14.3033L211.912 16.1018L211.037 14.3033ZM213.1 13.8452L213.073 15.845C213.091 15.8453 213.11 15.8453 213.129 15.845L213.1 13.8452ZM215.166 14.3033L214.291 16.1018L214.291 16.1018L215.166 14.3033ZM216.018 14.8423L214.768 16.4033C214.792 16.4228 214.817 16.4417 214.842 16.4601L216.018 14.8423ZM217.781 16.9601L219.58 16.0852V16.0852L217.781 16.9601ZM221.962 25.5546L220.164 26.4295V26.4295L221.962 25.5546ZM223.7 29.1262L221.901 30.0011C222.236 30.6894 222.934 31.1262 223.7 31.1262C224.465 31.1262 225.163 30.6894 225.498 30.0011L223.7 29.1262ZM225.437 25.5546L227.236 26.4295V26.4295L225.437 25.5546ZM229.618 16.9601L227.82 16.0852V16.0852L229.618 16.9601ZM236.363 14.3033L237.238 12.5048V12.5048L236.363 14.3033ZM238.436 21.2496L236.637 20.3747V20.3747L238.436 21.2496ZM231.919 34.6456L233.718 35.5204L231.919 34.6456ZM229.584 39.4471L231.382 40.322V40.322L229.584 39.4471ZM228.378 41.926L226.579 41.0511V41.0511L228.378 41.926ZM226.664 44.0078L225.47 42.4032C225.444 42.4224 225.419 42.4422 225.394 42.4626L226.664 44.0078ZM225.766 44.5828L226.641 46.3813V46.3813L225.766 44.5828ZM223.7 45.0408L223.729 43.041C223.709 43.0408 223.69 43.0408 223.671 43.041L223.7 45.0408ZM221.633 44.5828L220.758 46.3813V46.3813L221.633 44.5828ZM220.736 44.0078L222.006 42.4626C221.981 42.4422 221.956 42.4224 221.93 42.4032L220.736 44.0078ZM219.022 41.926L220.82 41.0511L219.022 41.926ZM217.816 39.4471L219.614 38.5722V38.5722L217.816 39.4471ZM215.48 34.6456L213.682 35.5204V35.5204L215.48 34.6456ZM213.101 29.7551L214.9 28.8802C214.565 28.1919 213.867 27.7551 213.101 27.7551C212.336 27.7551 211.638 28.1919 211.303 28.8802L213.101 29.7551ZM210.722 34.6455L212.521 35.5204V35.5204L210.722 34.6455ZM208.387 39.4471L210.185 40.322L208.387 39.4471ZM207.181 41.926L205.382 41.0511V41.0511L207.181 41.926ZM205.467 44.0077L204.273 42.4031C204.247 42.4223 204.222 42.4422 204.197 42.4626L205.467 44.0077ZM204.569 44.5828L205.444 46.3813L205.444 46.3813L204.569 44.5828ZM202.503 45.0408L202.532 43.041C202.512 43.0407 202.493 43.0407 202.474 43.041L202.503 45.0408ZM200.436 44.5828L199.561 46.3813L200.436 44.5828ZM199.539 44.0077L200.809 42.4626C200.784 42.4422 200.759 42.4223 200.733 42.4031L199.539 44.0077ZM197.825 41.926L199.623 41.0511V41.0511L197.825 41.926ZM196.619 39.4471L198.417 38.5722L196.619 39.4471ZM194.283 34.6455L192.485 35.5204L192.485 35.5204L194.283 34.6455ZM187.767 21.2495L185.968 22.1244L187.767 21.2495ZM198.383 16.0852C196.682 12.5876 192.535 10.7683 188.965 12.5048L190.715 16.1018C192.015 15.4692 193.907 16.0289 194.786 17.835L198.383 16.0852ZM202.564 24.6797L198.383 16.0852L194.786 17.835L198.967 26.4294L202.564 24.6797ZM204.301 28.2513L202.564 24.6797L198.967 26.4294L200.704 30.0011L204.301 28.2513ZM202.442 24.6797L200.704 28.2513L204.301 30.0011L206.039 26.4294L202.442 24.6797ZM206.623 16.0852L202.442 24.6797L206.039 26.4294L210.22 17.835L206.623 16.0852ZM209.009 13.2239C208.024 13.9398 207.193 14.9115 206.623 16.0852L210.22 17.835C210.502 17.2546 210.903 16.7921 211.361 16.4598L209.009 13.2239ZM210.162 12.5048C209.719 12.7205 209.308 12.9815 208.935 13.2805L211.435 16.4031C211.579 16.2877 211.738 16.1864 211.912 16.1018L210.162 12.5048ZM213.128 11.8454C212.127 11.8315 211.114 12.0419 210.162 12.5048L211.912 16.1018C212.281 15.9224 212.673 15.8395 213.073 15.845L213.128 11.8454ZM216.041 12.5048C215.088 12.0415 214.074 11.8311 213.072 11.8454L213.129 15.845C213.529 15.8393 213.922 15.9222 214.291 16.1018L216.041 12.5048ZM217.269 13.2812C216.895 12.9819 216.484 12.7207 216.041 12.5048L214.291 16.1018C214.465 16.1865 214.624 16.2878 214.768 16.4033L217.269 13.2812ZM219.58 16.0852C219.009 14.9119 218.179 13.9404 217.194 13.2245L214.842 16.4601C215.3 16.7924 215.701 17.2547 215.983 17.835L219.58 16.0852ZM223.761 24.6797L219.58 16.0852L215.983 17.835L220.164 26.4295L223.761 24.6797ZM225.498 28.2513L223.761 24.6797L220.164 26.4295L221.901 30.0011L225.498 28.2513ZM223.639 24.6797L221.901 28.2513L225.498 30.0011L227.236 26.4295L223.639 24.6797ZM227.82 16.0852L223.639 24.6797L227.236 26.4295L231.417 17.835L227.82 16.0852ZM237.238 12.5048C233.668 10.7684 229.521 12.5876 227.82 16.0852L231.417 17.835C232.295 16.0289 234.187 15.4692 235.488 16.1018L237.238 12.5048ZM240.234 22.1244C241.936 18.6269 240.807 14.2413 237.238 12.5048L235.488 16.1018C236.788 16.7343 237.516 18.5686 236.637 20.3747L240.234 22.1244ZM233.718 35.5204L240.234 22.1244L236.637 20.3747L230.121 33.7707L233.718 35.5204ZM231.382 40.322L233.718 35.5204L230.121 33.7707L227.785 38.5722L231.382 40.322ZM230.176 42.8009L231.382 40.322L227.785 38.5722L226.579 41.0511L230.176 42.8009ZM227.857 45.6124C228.813 44.9014 229.618 43.9475 230.176 42.8009L226.579 41.0511C226.303 41.6182 225.914 42.0726 225.47 42.4032L227.857 45.6124ZM226.641 46.3813C227.111 46.153 227.543 45.874 227.933 45.5529L225.394 42.4626C225.243 42.5865 225.076 42.6948 224.892 42.7843L226.641 46.3813ZM223.671 47.0406C224.673 47.0552 225.688 46.8449 226.641 46.3813L224.892 42.7843C224.522 42.964 224.129 43.0469 223.729 43.041L223.671 47.0406ZM220.758 46.3813C221.711 46.8449 222.727 47.0552 223.729 47.0406L223.671 43.041C223.271 43.0469 222.877 42.964 222.508 42.7843L220.758 46.3813ZM219.466 45.5529C219.857 45.874 220.289 46.153 220.758 46.3813L222.508 42.7843C222.324 42.6948 222.157 42.5865 222.006 42.4626L219.466 45.5529ZM217.223 42.8009C217.781 43.9475 218.587 44.9014 219.542 45.6124L221.93 42.4032C221.486 42.0726 221.096 41.6182 220.82 41.0511L217.223 42.8009ZM216.017 40.322L217.223 42.8009L220.82 41.0511L219.614 38.5722L216.017 40.322ZM213.682 35.5204L216.017 40.322L219.614 38.5722L217.279 33.7707L213.682 35.5204ZM211.303 30.63L213.682 35.5204L217.279 33.7707L214.9 28.8802L211.303 30.63ZM212.521 35.5204L214.9 30.63L211.303 28.8802L208.924 33.7706L212.521 35.5204ZM210.185 40.322L212.521 35.5204L208.924 33.7706L206.588 38.5722L210.185 40.322ZM208.979 42.8009L210.185 40.322L206.588 38.5722L205.382 41.0511L208.979 42.8009ZM206.66 45.6124C207.616 44.9014 208.421 43.9475 208.979 42.8009L205.382 41.0511C205.106 41.6182 204.717 42.0726 204.273 42.4031L206.66 45.6124ZM205.444 46.3813C205.914 46.1529 206.346 45.874 206.736 45.5529L204.197 42.4626C204.046 42.5865 203.879 42.6947 203.695 42.7843L205.444 46.3813ZM202.474 47.0406C203.476 47.0552 204.491 46.8449 205.444 46.3813L203.695 42.7843C203.325 42.964 202.932 43.0469 202.532 43.041L202.474 47.0406ZM199.561 46.3813C200.514 46.8449 201.53 47.0552 202.532 47.0406L202.474 43.041C202.074 43.0469 201.68 42.964 201.311 42.7843L199.561 46.3813ZM198.269 45.5529C198.66 45.874 199.092 46.1529 199.561 46.3813L201.311 42.7843C201.127 42.6947 200.96 42.5865 200.809 42.4626L198.269 45.5529ZM196.026 42.8009C196.584 43.9475 197.39 44.9014 198.345 45.6123L200.733 42.4031C200.289 42.0726 199.899 41.6182 199.623 41.0511L196.026 42.8009ZM194.82 40.322L196.026 42.8009L199.623 41.0511L198.417 38.5722L194.82 40.322ZM192.485 35.5204L194.82 40.322L198.417 38.5722L196.082 33.7706L192.485 35.5204ZM185.968 22.1244L192.485 35.5204L196.082 33.7706L189.565 20.3747L185.968 22.1244ZM188.965 12.5048C185.395 14.2412 184.267 18.6268 185.968 22.1244L189.565 20.3747C188.687 18.5686 189.414 16.7343 190.715 16.1018L188.965 12.5048Z" fill="white" mask="url(#path-5-outside-3_977_2506)"/>
<mask id="path-7-outside-4_977_2506" maskUnits="userSpaceOnUse" x="14.7085" y="12.0686" width="32" height="35" fill="black">
<rect fill="white" x="14.7085" y="12.0686" width="32" height="35"/>
<path fill-rule="evenodd" clip-rule="evenodd" d="M21.6114 14.0686C18.9036 14.0686 16.7085 16.2637 16.7085 18.9715C16.7085 21.6793 18.9036 23.8744 21.6114 23.8744H25.3827V40.0915C25.3827 42.7993 27.5778 44.9944 30.2856 44.9944C32.9934 44.9944 35.1884 42.7993 35.1884 40.0915V23.8744H39.4532C42.161 23.8744 44.3561 21.6793 44.3561 18.9715C44.3561 16.2637 42.161 14.0686 39.4532 14.0686H21.6114Z"/>
</mask>
<path fill-rule="evenodd" clip-rule="evenodd" d="M21.6114 14.0686C18.9036 14.0686 16.7085 16.2637 16.7085 18.9715C16.7085 21.6793 18.9036 23.8744 21.6114 23.8744H25.3827V40.0915C25.3827 42.7993 27.5778 44.9944 30.2856 44.9944C32.9934 44.9944 35.1884 42.7993 35.1884 40.0915V23.8744H39.4532C42.161 23.8744 44.3561 21.6793 44.3561 18.9715C44.3561 16.2637 42.161 14.0686 39.4532 14.0686H21.6114Z" fill="url(#paint3_linear_977_2506)"/>
<path d="M25.3827 23.8744H27.3827C27.3827 22.7698 26.4873 21.8744 25.3827 21.8744V23.8744ZM35.1884 23.8744V21.8744C34.0839 21.8744 33.1884 22.7698 33.1884 23.8744H35.1884ZM18.7085 18.9715C18.7085 17.3683 20.0082 16.0686 21.6114 16.0686V12.0686C17.799 12.0686 14.7085 15.1592 14.7085 18.9715H18.7085ZM21.6114 21.8744C20.0082 21.8744 18.7085 20.5747 18.7085 18.9715H14.7085C14.7085 22.7839 17.799 25.8744 21.6114 25.8744V21.8744ZM25.3827 21.8744H21.6114V25.8744H25.3827V21.8744ZM27.3827 40.0915V23.8744H23.3827V40.0915H27.3827ZM30.2856 42.9944C28.6824 42.9944 27.3827 41.6947 27.3827 40.0915H23.3827C23.3827 43.9039 26.4732 46.9944 30.2856 46.9944V42.9944ZM33.1884 40.0915C33.1884 41.6947 31.8888 42.9944 30.2856 42.9944V46.9944C34.0979 46.9944 37.1884 43.9039 37.1884 40.0915H33.1884ZM33.1884 23.8744V40.0915H37.1884V23.8744H33.1884ZM39.4532 21.8744H35.1884V25.8744H39.4532V21.8744ZM42.3561 18.9715C42.3561 20.5747 41.0564 21.8744 39.4532 21.8744V25.8744C43.2656 25.8744 46.3561 22.7839 46.3561 18.9715H42.3561ZM39.4532 16.0686C41.0564 16.0686 42.3561 17.3683 42.3561 18.9715H46.3561C46.3561 15.1592 43.2656 12.0686 39.4532 12.0686V16.0686ZM21.6114 16.0686H39.4532V12.0686H21.6114V16.0686Z" fill="white" mask="url(#path-7-outside-4_977_2506)"/>
<mask id="path-9-outside-5_977_2506" maskUnits="userSpaceOnUse" x="74.8469" y="11.9254" width="35" height="36" fill="black">
<rect fill="white" x="74.8469" y="11.9254" width="35" height="36"/>
<path fill-rule="evenodd" clip-rule="evenodd" d="M87.6723 29.5813C87.6725 29.5758 87.6746 29.5227 87.6943 29.419C87.7164 29.302 87.7568 29.1422 87.8257 28.9425C87.9653 28.5376 88.1973 28.0418 88.5358 27.5037C89.2252 26.4078 90.2082 25.37 91.3175 24.6623C92.4032 23.9697 93.4771 23.6693 94.5069 23.7358C95.4989 23.7999 96.9209 24.2331 98.7015 25.8356C100.713 27.6461 103.812 27.483 105.622 25.4713C107.433 23.4596 107.27 20.3611 105.258 18.5505C102.114 15.7204 98.672 14.1835 95.139 13.9552C91.9288 13.7478 89.0414 14.646 86.6665 16.0221C85.7717 14.8356 84.3502 14.0686 82.7496 14.0686C80.0419 14.0686 77.8468 16.2637 77.8468 18.9715V32.6502L77.8468 37.5531V40.0843C77.8468 42.7921 80.0419 44.9872 82.7496 44.9872C85.4574 44.9872 87.6525 42.7921 87.6525 40.0843V32.6502L87.6525 30.0238C87.6656 29.8779 87.6723 29.7301 87.6723 29.5808L87.6723 29.5818C87.6723 29.5818 87.6723 29.5817 87.6723 29.5813Z"/>
</mask>
<path fill-rule="evenodd" clip-rule="evenodd" d="M87.6723 29.5813C87.6725 29.5758 87.6746 29.5227 87.6943 29.419C87.7164 29.302 87.7568 29.1422 87.8257 28.9425C87.9653 28.5376 88.1973 28.0418 88.5358 27.5037C89.2252 26.4078 90.2082 25.37 91.3175 24.6623C92.4032 23.9697 93.4771 23.6693 94.5069 23.7358C95.4989 23.7999 96.9209 24.2331 98.7015 25.8356C100.713 27.6461 103.812 27.483 105.622 25.4713C107.433 23.4596 107.27 20.3611 105.258 18.5505C102.114 15.7204 98.672 14.1835 95.139 13.9552C91.9288 13.7478 89.0414 14.646 86.6665 16.0221C85.7717 14.8356 84.3502 14.0686 82.7496 14.0686C80.0419 14.0686 77.8468 16.2637 77.8468 18.9715V32.6502L77.8468 37.5531V40.0843C77.8468 42.7921 80.0419 44.9872 82.7496 44.9872C85.4574 44.9872 87.6525 42.7921 87.6525 40.0843V32.6502L87.6525 30.0238C87.6656 29.8779 87.6723 29.7301 87.6723 29.5808L87.6723 29.5818C87.6723 29.5818 87.6723 29.5817 87.6723 29.5813Z" fill="url(#paint4_linear_977_2506)"/>
<path d="M87.6943 29.419L85.7292 29.0471L85.7292 29.0471L87.6943 29.419ZM87.6723 29.5813L89.6706 29.6634L89.6707 29.6609L87.6723 29.5813ZM87.8257 28.9425L85.935 28.2902L85.935 28.2902L87.8257 28.9425ZM88.5358 27.5037L90.2286 28.5687L90.2286 28.5687L88.5358 27.5037ZM91.3175 24.6623L92.3931 26.3484L91.3175 24.6623ZM94.5069 23.7358L94.6359 21.74H94.6359L94.5069 23.7358ZM98.7015 25.8356L97.3636 27.3222L97.3636 27.3222L98.7015 25.8356ZM105.258 18.5505L103.92 20.0371L103.92 20.0371L105.258 18.5505ZM95.139 13.9552L95.268 11.9594L95.139 13.9552ZM86.6665 16.0221L85.0697 17.2264C85.6786 18.0337 86.7943 18.2596 87.6692 17.7526L86.6665 16.0221ZM77.8468 32.6502H75.8468V32.6502L77.8468 32.6502ZM77.8468 37.5531H79.8468V37.5531L77.8468 37.5531ZM87.6525 32.6502H89.6525V32.6502L87.6525 32.6502ZM87.6525 30.0238L85.6605 29.8453C85.6552 29.9047 85.6525 29.9642 85.6525 30.0238L87.6525 30.0238ZM87.6723 29.5808L89.6723 29.5772C89.6703 28.4733 88.7743 27.5798 87.6705 27.5808C86.5666 27.5818 85.6723 28.4769 85.6723 29.5808H87.6723ZM87.6723 29.5818L85.6723 29.5854C85.6743 30.6886 86.5691 31.5818 87.6723 31.5818V29.5818ZM85.7292 29.0471C85.6903 29.2526 85.6778 29.4036 85.6739 29.5017L89.6707 29.6609C89.6707 29.6609 89.6707 29.6622 89.6706 29.6639C89.6705 29.6656 89.6704 29.6677 89.6703 29.67C89.6701 29.6745 89.6699 29.6794 89.6696 29.6844C89.6691 29.6945 89.6685 29.7041 89.6678 29.7133C89.6664 29.7318 89.665 29.7471 89.6636 29.7593C89.6609 29.7838 89.6587 29.7945 89.6594 29.791L85.7292 29.0471ZM85.935 28.2902C85.8381 28.5711 85.7712 28.8249 85.7292 29.0471L89.6594 29.791C89.6616 29.7792 89.6754 29.7132 89.7163 29.5947L85.935 28.2902ZM86.8429 26.4387C86.4321 27.0917 86.13 27.7251 85.935 28.2902L89.7163 29.5947C89.8007 29.35 89.9624 28.9919 90.2286 28.5687L86.8429 26.4387ZM90.2419 22.9762C88.8569 23.8597 87.672 25.1209 86.8429 26.4387L90.2286 28.5687C90.7784 27.6948 91.5595 26.8802 92.3931 26.3484L90.2419 22.9762ZM94.6359 21.74C93.1054 21.6411 91.6155 22.0999 90.2419 22.9762L92.3931 26.3484C93.1909 25.8395 93.8488 25.6975 94.378 25.7317L94.6359 21.74ZM100.039 24.349C97.9789 22.4945 96.1445 21.8375 94.6359 21.74L94.3779 25.7317C94.8534 25.7624 95.863 25.9716 97.3636 27.3222L100.039 24.349ZM104.136 24.1334C103.064 25.3241 101.23 25.4206 100.039 24.349L97.3636 27.3222C100.196 29.8716 104.559 29.642 107.109 26.8092L104.136 24.1334ZM103.92 20.0371C105.111 21.1087 105.207 22.9427 104.136 24.1334L107.109 26.8092C109.658 23.9765 109.429 19.6134 106.596 17.0639L103.92 20.0371ZM95.01 15.9511C98.0237 16.1458 101.053 17.4569 103.92 20.0371L106.596 17.0639C103.174 13.984 99.3202 12.2213 95.268 11.9594L95.01 15.9511ZM87.6692 17.7526C89.7643 16.5386 92.2617 15.7734 95.01 15.9511L95.268 11.9594C91.5959 11.7221 88.3186 12.7533 85.6638 14.2916L87.6692 17.7526ZM82.7496 16.0686C83.696 16.0686 84.5365 16.5194 85.0697 17.2264L88.2633 14.8178C87.0068 13.1518 85.0044 12.0686 82.7496 12.0686V16.0686ZM79.8468 18.9715C79.8468 17.3683 81.1464 16.0686 82.7496 16.0686V12.0686C78.9373 12.0686 75.8468 15.1591 75.8468 18.9715H79.8468ZM79.8468 32.6502V18.9715H75.8468V32.6502H79.8468ZM79.8468 37.5531L79.8468 32.6502L75.8468 32.6502L75.8468 37.5531L79.8468 37.5531ZM79.8468 40.0843V37.5531H75.8468V40.0843H79.8468ZM82.7496 42.9872C81.1464 42.9872 79.8468 41.6875 79.8468 40.0843H75.8468C75.8468 43.8967 78.9373 46.9872 82.7496 46.9872V42.9872ZM85.6525 40.0843C85.6525 41.6875 84.3529 42.9872 82.7496 42.9872V46.9872C86.562 46.9872 89.6525 43.8967 89.6525 40.0843H85.6525ZM85.6525 32.6502V40.0843H89.6525V32.6502H85.6525ZM85.6525 30.0238L85.6525 32.6502L89.6525 32.6502L89.6525 30.0238L85.6525 30.0238ZM85.6723 29.5808C85.6723 29.6704 85.6683 29.7586 85.6605 29.8453L89.6445 30.2023C89.6629 29.9971 89.6723 29.7898 89.6723 29.5808H85.6723ZM89.6723 29.5782L89.6723 29.5772L85.6723 29.5844L85.6723 29.5854L89.6723 29.5782ZM85.674 29.4993C85.6739 29.5017 85.6741 29.4963 85.6743 29.4908C85.6744 29.4898 85.675 29.4766 85.676 29.46C85.6763 29.4556 85.6779 29.4277 85.6813 29.3923C85.6823 29.382 85.6874 29.3262 85.699 29.2558C85.7027 29.2334 85.7198 29.1273 85.7599 28.9964C85.7754 28.9457 85.8296 28.7696 85.9485 28.5676C86.0074 28.4676 86.1362 28.2666 86.3619 28.0709C86.5969 27.8671 87.0442 27.5818 87.6723 27.5818V31.5818C88.3004 31.5818 88.7477 31.2965 88.9827 31.0927C89.2083 30.897 89.3372 30.6961 89.3961 30.596C89.5149 30.394 89.5692 30.2179 89.5847 30.1673C89.6247 30.0364 89.6418 29.9303 89.6455 29.9079C89.6571 29.8375 89.6623 29.7816 89.6633 29.7713C89.6666 29.7359 89.6683 29.708 89.6686 29.7035C89.6696 29.6869 89.6702 29.6737 89.6702 29.6727C89.6704 29.6688 89.6705 29.6658 89.6705 29.6651C89.6706 29.6645 89.6706 29.6641 89.6706 29.6638C89.6706 29.6636 89.6706 29.6634 89.6706 29.6634L85.674 29.4993Z" fill="white" mask="url(#path-9-outside-5_977_2506)"/>
<mask id="path-11-outside-6_977_2506" maskUnits="userSpaceOnUse" x="153.649" y="11.8203" width="33" height="36" fill="black">
<rect fill="white" x="153.649" y="11.8203" width="33" height="36"/>
<path fill-rule="evenodd" clip-rule="evenodd" d="M179.304 32.4864C181.991 32.4733 184.167 30.2976 184.18 27.6107H184.232C184.232 25.7997 183.873 24.0064 183.18 22.3333C182.487 20.6602 181.471 19.14 180.191 17.8594C178.91 16.5788 177.39 15.563 175.717 14.87C174.044 14.177 172.25 13.8203 170.439 13.8203C168.629 13.8203 166.835 14.177 165.162 14.87C163.489 15.563 161.969 16.5788 160.688 17.8594C159.408 19.14 158.392 20.6602 157.699 22.3333C157.006 24.0064 156.649 25.7997 156.649 27.6107H156.649V31.5508H156.649L156.649 31.6367V32.5358H156.684C156.851 34.8697 157.61 37.1286 158.896 39.0962C160.362 41.3395 162.451 43.1069 164.906 44.1823C167.36 45.2577 168.469 45.3412 170.439 45.3412V45.3411H177.334V45.2918C180.029 45.2787 182.21 43.0897 182.21 40.3913C182.21 37.693 180.029 35.504 177.334 35.4909V35.4908H170.439V35.4909C169.481 35.4909 169.39 35.4506 168.881 35.2277L168.837 35.2081C168.126 34.8968 167.521 34.385 167.097 33.7355C166.855 33.3654 166.677 32.9598 166.569 32.5358H179.304V32.4864ZM174.08 23.8287C174.278 24.247 174.38 24.6953 174.38 25.1481H170.44H166.499C166.499 24.6953 166.601 24.247 166.799 23.8287C166.997 23.4105 167.288 23.0304 167.654 22.7103C168.019 22.3901 168.454 22.1362 168.932 21.9629C169.41 21.7897 169.922 21.7005 170.44 21.7005C170.957 21.7005 171.469 21.7897 171.947 21.9629C172.425 22.1362 172.86 22.3901 173.226 22.7103C173.592 23.0304 173.882 23.4105 174.08 23.8287Z"/>
</mask>
<path fill-rule="evenodd" clip-rule="evenodd" d="M179.304 32.4864C181.991 32.4733 184.167 30.2976 184.18 27.6107H184.232C184.232 25.7997 183.873 24.0064 183.18 22.3333C182.487 20.6602 181.471 19.14 180.191 17.8594C178.91 16.5788 177.39 15.563 175.717 14.87C174.044 14.177 172.25 13.8203 170.439 13.8203C168.629 13.8203 166.835 14.177 165.162 14.87C163.489 15.563 161.969 16.5788 160.688 17.8594C159.408 19.14 158.392 20.6602 157.699 22.3333C157.006 24.0064 156.649 25.7997 156.649 27.6107H156.649V31.5508H156.649L156.649 31.6367V32.5358H156.684C156.851 34.8697 157.61 37.1286 158.896 39.0962C160.362 41.3395 162.451 43.1069 164.906 44.1823C167.36 45.2577 168.469 45.3412 170.439 45.3412V45.3411H177.334V45.2918C180.029 45.2787 182.21 43.0897 182.21 40.3913C182.21 37.693 180.029 35.504 177.334 35.4909V35.4908H170.439V35.4909C169.481 35.4909 169.39 35.4506 168.881 35.2277L168.837 35.2081C168.126 34.8968 167.521 34.385 167.097 33.7355C166.855 33.3654 166.677 32.9598 166.569 32.5358H179.304V32.4864ZM174.08 23.8287C174.278 24.247 174.38 24.6953 174.38 25.1481H170.44H166.499C166.499 24.6953 166.601 24.247 166.799 23.8287C166.997 23.4105 167.288 23.0304 167.654 22.7103C168.019 22.3901 168.454 22.1362 168.932 21.9629C169.41 21.7897 169.922 21.7005 170.44 21.7005C170.957 21.7005 171.469 21.7897 171.947 21.9629C172.425 22.1362 172.86 22.3901 173.226 22.7103C173.592 23.0304 173.882 23.4105 174.08 23.8287Z" fill="url(#paint5_linear_977_2506)"/>
<path d="M184.18 27.6107V25.6107H182.19L182.18 27.6008L184.18 27.6107ZM179.304 32.4864L179.295 30.4865L177.304 30.4962V32.4864H179.304ZM184.232 27.6107V29.6107H186.232V27.6107H184.232ZM183.18 22.3333L185.028 21.568L183.18 22.3333ZM180.191 17.8594L181.605 16.4452V16.4452L180.191 17.8594ZM175.717 14.87L174.951 16.7178V16.7178L175.717 14.87ZM165.162 14.87L164.397 13.0223L164.397 13.0223L165.162 14.87ZM160.688 17.8594L162.102 19.2736L160.688 17.8594ZM157.699 22.3333L155.851 21.568H155.851L157.699 22.3333ZM156.649 27.6107V29.6107H158.649L158.649 27.6107L156.649 27.6107ZM156.649 27.6107V25.6107H154.649V27.6107H156.649ZM156.649 31.5508V33.5508H158.649V31.5508H156.649ZM156.649 31.5508V29.5508H154.642L154.649 31.557L156.649 31.5508ZM156.649 31.6367H158.649L158.649 31.6304L156.649 31.6367ZM156.649 32.5358H154.649V34.5358H156.649V32.5358ZM156.684 32.5358L158.679 32.393L158.546 30.5358H156.684V32.5358ZM158.896 39.0962L160.57 38.0019L158.896 39.0962ZM164.906 44.1823L164.103 46.0143H164.103L164.906 44.1823ZM170.439 45.3412V47.3412H172.439V45.3412H170.439ZM170.439 45.3411V43.3411H168.439V45.3411H170.439ZM177.334 45.3411V47.3411H179.334V45.3411H177.334ZM177.334 45.2918L177.324 43.2918L175.334 43.3015V45.2918H177.334ZM177.334 35.4909H175.334V37.4812L177.324 37.4909L177.334 35.4909ZM177.334 35.4908H179.334V33.4908H177.334V35.4908ZM170.439 35.4908V33.4908H168.439V35.4908H170.439ZM170.439 35.4909V37.4909H172.439V35.4909H170.439ZM168.881 35.2277L169.685 33.3962L169.685 33.396L168.881 35.2277ZM168.837 35.2081L169.64 33.3765L169.639 33.3762L168.837 35.2081ZM167.097 33.7355L168.771 32.6412L168.771 32.6412L167.097 33.7355ZM166.569 32.5358V30.5358H163.997L164.631 33.0292L166.569 32.5358ZM179.304 32.5358V34.5358H181.304V32.5358H179.304ZM174.38 25.1481V27.1481H176.38V25.1481H174.38ZM166.499 25.1481H164.499V27.1481H166.499V25.1481ZM166.799 23.8287L164.992 22.973L164.992 22.973L166.799 23.8287ZM167.654 22.7103L166.337 21.2051L166.337 21.2051L167.654 22.7103ZM168.932 21.9629L169.613 23.8432L169.613 23.8432L168.932 21.9629ZM171.947 21.9629L171.266 23.8432L171.947 21.9629ZM182.18 27.6008C182.173 29.1909 180.885 30.4787 179.295 30.4865L179.314 34.4864C183.098 34.4679 186.162 31.4044 186.18 27.6205L182.18 27.6008ZM184.232 25.6107H184.18V29.6107H184.232V25.6107ZM181.332 23.0987C181.925 24.5304 182.232 26.0637 182.232 27.6107H186.232C186.232 25.5357 185.821 23.4825 185.028 21.568L181.332 23.0987ZM178.777 19.2736C179.871 20.3684 180.74 21.6682 181.332 23.0987L185.028 21.568C184.234 19.6522 183.071 17.9115 181.605 16.4452L178.777 19.2736ZM174.951 16.7178C176.382 17.3103 177.682 18.1788 178.777 19.2736L181.605 16.4452C180.139 14.9789 178.398 13.8158 176.482 13.0223L174.951 16.7178ZM170.439 15.8203C171.988 15.8203 173.521 16.1252 174.951 16.7178L176.482 13.0223C174.566 12.2287 172.513 11.8203 170.439 11.8203V15.8203ZM165.927 16.7178C167.358 16.1252 168.891 15.8203 170.439 15.8203V11.8203C168.366 11.8203 166.313 12.2287 164.397 13.0223L165.927 16.7178ZM162.102 19.2736C163.197 18.1788 164.497 17.3103 165.927 16.7178L164.397 13.0223C162.481 13.8158 160.74 14.9789 159.274 16.4452L162.102 19.2736ZM159.547 23.0987C160.139 21.6682 161.008 20.3684 162.102 19.2736L159.274 16.4452C157.808 17.9115 156.645 19.6522 155.851 21.568L159.547 23.0987ZM158.649 27.6107C158.649 26.0623 158.954 24.5292 159.547 23.0987L155.851 21.568C155.058 23.4837 154.649 25.537 154.649 27.6107L158.649 27.6107ZM156.649 29.6107H156.649V25.6107H156.649V29.6107ZM158.649 31.5508V27.6107H154.649V31.5508H158.649ZM156.649 33.5508H156.649V29.5508H156.649V33.5508ZM158.649 31.6304L158.649 31.5445L154.649 31.557L154.649 31.6429L158.649 31.6304ZM158.649 32.5358V31.6367H154.649V32.5358H158.649ZM156.684 30.5358H156.649V34.5358H156.684V30.5358ZM160.57 38.0019C159.47 36.3197 158.822 34.3884 158.679 32.393L154.689 32.6786C154.88 35.351 155.749 37.9375 157.222 40.1905L160.57 38.0019ZM165.708 42.3504C163.609 41.431 161.824 39.9199 160.57 38.0019L157.222 40.1905C158.901 42.7592 161.292 44.7829 164.103 46.0143L165.708 42.3504ZM170.439 43.3412C169.47 43.3412 168.858 43.3181 168.222 43.1991C167.592 43.0813 166.853 42.8519 165.708 42.3504L164.103 46.0143C165.413 46.5882 166.456 46.9382 167.486 47.1309C168.511 47.3225 169.438 47.3412 170.439 47.3412V43.3412ZM168.439 45.3411V45.3412H172.439V45.3411H168.439ZM177.334 43.3411H170.439V47.3411H177.334V43.3411ZM175.334 45.2918V45.3411H179.334V45.2918H175.334ZM180.21 40.3913C180.21 41.9884 178.919 43.2841 177.324 43.2918L177.344 47.2918C181.139 47.2733 184.21 44.191 184.21 40.3913H180.21ZM177.324 37.4909C178.919 37.4986 180.21 38.7943 180.21 40.3913H184.21C184.21 36.5917 181.139 33.5094 177.344 33.4909L177.324 37.4909ZM175.334 35.4908V35.4909H179.334V35.4908H175.334ZM170.439 37.4908H177.334V33.4908H170.439V37.4908ZM172.439 35.4909V35.4908H168.439V35.4909H172.439ZM168.078 37.0592C168.301 37.1572 168.659 37.3233 169.13 37.4099C169.542 37.4857 169.981 37.4909 170.439 37.4909V33.4909C170.207 33.4909 170.061 33.4883 169.959 33.4834C169.86 33.4787 169.839 33.4732 169.853 33.4759C169.912 33.4867 169.97 33.5211 169.685 33.3962L168.078 37.0592ZM168.034 37.0398L168.078 37.0594L169.685 33.396L169.64 33.3765L168.034 37.0398ZM165.423 34.8298C166.06 35.8047 166.967 36.5727 168.034 37.0401L169.639 33.3762C169.285 33.2208 168.983 32.9654 168.771 32.6412L165.423 34.8298ZM164.631 33.0292C164.793 33.6656 165.06 34.2744 165.423 34.8298L168.771 32.6412C168.65 32.4565 168.562 32.2541 168.508 32.0424L164.631 33.0292ZM179.304 30.5358H166.569V34.5358H179.304V30.5358ZM177.304 32.4864V32.5358H181.304V32.4864H177.304ZM176.38 25.1481C176.38 24.3927 176.209 23.6527 175.887 22.973L172.272 24.6845C172.346 24.8414 172.38 24.998 172.38 25.1481H176.38ZM170.44 27.1481H174.38V23.1481H170.44V27.1481ZM166.499 27.1481H170.44V23.1481H166.499V27.1481ZM164.992 22.973C164.67 23.6527 164.499 24.3927 164.499 25.1481H168.499C168.499 24.998 168.533 24.8414 168.607 24.6845L164.992 22.973ZM166.337 21.2051C165.775 21.6965 165.313 22.2945 164.992 22.973L168.607 24.6845C168.682 24.5265 168.8 24.3643 168.971 24.2154L166.337 21.2051ZM168.25 20.0826C167.55 20.3365 166.898 20.7141 166.337 21.2051L168.971 24.2154C169.141 24.0661 169.358 23.9359 169.613 23.8432L168.25 20.0826ZM170.44 19.7005C169.694 19.7005 168.951 19.8288 168.25 20.0826L169.613 23.8432C169.869 23.7506 170.15 23.7005 170.44 23.7005V19.7005ZM172.629 20.0826C171.929 19.8288 171.185 19.7005 170.44 19.7005V23.7005C170.729 23.7005 171.01 23.7506 171.266 23.8432L172.629 20.0826ZM174.543 21.2051C173.982 20.7141 173.329 20.3365 172.629 20.0826L171.266 23.8432C171.522 23.9359 171.738 24.0661 171.909 24.2154L174.543 21.2051ZM175.887 22.973C175.566 22.2945 175.104 21.6965 174.543 21.2051L171.909 24.2154C172.079 24.3643 172.197 24.5265 172.272 24.6845L175.887 22.973Z" fill="white" mask="url(#path-11-outside-6_977_2506)"/>
<mask id="path-13-outside-7_977_2506" maskUnits="userSpaceOnUse" x="45.3113" y="11.8204" width="32" height="36" fill="black">
<rect fill="white" x="45.3113" y="11.8204" width="32" height="36"/>
<path fill-rule="evenodd" clip-rule="evenodd" d="M47.3112 27.6107C47.3112 25.7997 47.6679 24.0065 48.3609 22.3333C49.054 20.6602 50.0698 19.14 51.3503 17.8594C52.6309 16.5788 54.1511 15.563 55.8242 14.87C57.4974 14.177 59.2906 13.8203 61.1016 13.8203C62.9126 13.8203 64.7058 14.177 66.379 14.87C68.0521 15.563 69.5723 16.5788 70.8529 17.8594C72.1334 19.14 73.1492 20.6602 73.8423 22.3333C74.5353 24.0065 74.8938 25.7997 74.8938 27.6107H74.8426C74.8292 30.2975 72.6537 32.473 69.9669 32.4863V32.5357H57.2322C57.3401 32.9597 57.5176 33.3653 57.7595 33.7353C58.184 34.3849 58.7887 34.8966 59.4995 35.208L59.5442 35.2276C60.0523 35.4505 60.144 35.4907 61.1017 35.4907V35.4908H67.962L67.9719 35.4908L67.9817 35.4908H67.9969V35.4909C70.6918 35.5043 72.8724 37.6932 72.8724 40.3913C72.8724 43.0895 70.6918 45.2783 67.9969 45.2918V45.3411H61.1017V45.341C59.1316 45.341 58.0231 45.2576 55.5683 44.1822C53.1134 43.1068 51.0251 41.3394 49.5586 39.0961C48.2725 37.1285 47.5136 34.8696 47.3465 32.5357H47.3113V31.5582V31.5506V27.6107H47.3112ZM64.7419 23.8287C64.9399 24.247 65.0418 24.6953 65.0418 25.1481H61.1017H57.1616C57.1616 24.6953 57.2635 24.247 57.4615 23.8287C57.6595 23.4105 57.9498 23.0304 58.3156 22.7103C58.6815 22.3901 59.1159 22.1362 59.5939 21.9629C60.0719 21.7897 60.5843 21.7005 61.1017 21.7005C61.6191 21.7005 62.1315 21.7897 62.6095 21.9629C63.0876 22.1362 63.5219 22.3901 63.8878 22.7103C64.2537 23.0304 64.5439 23.4105 64.7419 23.8287Z"/>
</mask>
<path fill-rule="evenodd" clip-rule="evenodd" d="M47.3112 27.6107C47.3112 25.7997 47.6679 24.0065 48.3609 22.3333C49.054 20.6602 50.0698 19.14 51.3503 17.8594C52.6309 16.5788 54.1511 15.563 55.8242 14.87C57.4974 14.177 59.2906 13.8203 61.1016 13.8203C62.9126 13.8203 64.7058 14.177 66.379 14.87C68.0521 15.563 69.5723 16.5788 70.8529 17.8594C72.1334 19.14 73.1492 20.6602 73.8423 22.3333C74.5353 24.0065 74.8938 25.7997 74.8938 27.6107H74.8426C74.8292 30.2975 72.6537 32.473 69.9669 32.4863V32.5357H57.2322C57.3401 32.9597 57.5176 33.3653 57.7595 33.7353C58.184 34.3849 58.7887 34.8966 59.4995 35.208L59.5442 35.2276C60.0523 35.4505 60.144 35.4907 61.1017 35.4907V35.4908H67.962L67.9719 35.4908L67.9817 35.4908H67.9969V35.4909C70.6918 35.5043 72.8724 37.6932 72.8724 40.3913C72.8724 43.0895 70.6918 45.2783 67.9969 45.2918V45.3411H61.1017V45.341C59.1316 45.341 58.0231 45.2576 55.5683 44.1822C53.1134 43.1068 51.0251 41.3394 49.5586 39.0961C48.2725 37.1285 47.5136 34.8696 47.3465 32.5357H47.3113V31.5582V31.5506V27.6107H47.3112ZM64.7419 23.8287C64.9399 24.247 65.0418 24.6953 65.0418 25.1481H61.1017H57.1616C57.1616 24.6953 57.2635 24.247 57.4615 23.8287C57.6595 23.4105 57.9498 23.0304 58.3156 22.7103C58.6815 22.3901 59.1159 22.1362 59.5939 21.9629C60.0719 21.7897 60.5843 21.7005 61.1017 21.7005C61.6191 21.7005 62.1315 21.7897 62.6095 21.9629C63.0876 22.1362 63.5219 22.3901 63.8878 22.7103C64.2537 23.0304 64.5439 23.4105 64.7419 23.8287Z" fill="url(#paint6_linear_977_2506)"/>
<path d="M48.3609 22.3333L46.5132 21.568H46.5132L48.3609 22.3333ZM47.3112 27.6107H45.3112V29.6107H47.3112V27.6107ZM51.3503 17.8594L52.7645 19.2736V19.2736L51.3503 17.8594ZM55.8242 14.87L55.0589 13.0223L55.0589 13.0223L55.8242 14.87ZM61.1016 13.8203V15.8203V13.8203ZM66.379 14.87L65.6136 16.7178V16.7178L66.379 14.87ZM73.8423 22.3333L75.69 21.568L73.8423 22.3333ZM74.8938 27.6107V29.6107H76.8938V27.6107H74.8938ZM74.8426 27.6107V25.6107H72.8525L72.8426 27.6008L74.8426 27.6107ZM69.9669 32.4863L69.957 30.4863L67.9669 30.4962V32.4863H69.9669ZM69.9669 32.5357V34.5357H71.9669V32.5357H69.9669ZM57.2322 32.5357V30.5357H54.6592L55.294 33.0292L57.2322 32.5357ZM57.7595 33.7353L56.0854 34.8296H56.0854L57.7595 33.7353ZM59.4995 35.208L60.3026 33.3763L60.302 33.3761L59.4995 35.208ZM59.5442 35.2276L60.3476 33.3961L60.3473 33.3959L59.5442 35.2276ZM61.1017 35.4907H63.1017V33.4907H61.1017V35.4907ZM61.1017 35.4908H59.1017V37.4908H61.1017V35.4908ZM67.962 35.4908V37.4908L67.9643 37.4908L67.962 35.4908ZM67.9719 35.4908L67.9742 33.4908L67.9696 33.4908L67.9719 35.4908ZM67.9817 35.4908L67.9794 37.4908H67.9817V35.4908ZM67.9969 35.4908H69.9969V33.4908H67.9969V35.4908ZM67.9969 35.4909H65.9969V37.4809L67.9869 37.4909L67.9969 35.4909ZM67.9969 45.2918L67.9869 43.2918L65.9969 43.3017V45.2918H67.9969ZM67.9969 45.3411V47.3411H69.9969V45.3411H67.9969ZM61.1017 45.3411H59.1017V47.3411H61.1017V45.3411ZM61.1017 45.341H63.1017V43.341H61.1017V45.341ZM55.5683 44.1822L54.7658 46.0141H54.7658L55.5683 44.1822ZM49.5586 39.0961L51.2327 38.0018H51.2327L49.5586 39.0961ZM47.3465 32.5357L49.3414 32.3929L49.2084 30.5357H47.3465V32.5357ZM47.3113 32.5357H45.3113V34.5357H47.3113V32.5357ZM47.3113 27.6107H49.3113V25.6107H47.3113V27.6107ZM65.0418 25.1481V27.1481H67.0418V25.1481H65.0418ZM64.7419 23.8287L66.5496 22.973L66.5496 22.973L64.7419 23.8287ZM57.1616 25.1481H55.1616V27.1481H57.1616V25.1481ZM57.4615 23.8287L55.6538 22.973L55.6538 22.973L57.4615 23.8287ZM58.3156 22.7103L56.9986 21.2051L56.9986 21.2051L58.3156 22.7103ZM59.5939 21.9629L60.2754 23.8432L60.2754 23.8432L59.5939 21.9629ZM62.6095 21.9629L61.928 23.8432L62.6095 21.9629ZM63.8878 22.7103L62.5708 24.2154L62.5708 24.2154L63.8878 22.7103ZM46.5132 21.568C45.7196 23.4837 45.3112 25.5371 45.3112 27.6107H49.3112C49.3112 26.0623 49.6162 24.5292 50.2087 23.0987L46.5132 21.568ZM49.9361 16.4452C48.4698 17.9115 47.3067 19.6522 46.5132 21.568L50.2087 23.0987C50.8012 21.6682 51.6697 20.3685 52.7645 19.2736L49.9361 16.4452ZM55.0589 13.0223C53.1431 13.8158 51.4024 14.9789 49.9361 16.4452L52.7645 19.2736C53.8594 18.1788 55.1591 17.3103 56.5896 16.7178L55.0589 13.0223ZM61.1016 11.8203C59.028 11.8203 56.9747 12.2287 55.0589 13.0223L56.5896 16.7178C58.0201 16.1253 59.5533 15.8203 61.1016 15.8203V11.8203ZM67.1443 13.0223C65.2285 12.2287 63.1752 11.8203 61.1016 11.8203V15.8203C62.6499 15.8203 64.1831 16.1253 65.6136 16.7178L67.1443 13.0223ZM72.2671 16.4452C70.8008 14.9789 69.0601 13.8158 67.1443 13.0223L65.6136 16.7178C67.0441 17.3103 68.3438 18.1788 69.4387 19.2736L72.2671 16.4452ZM75.69 21.568C74.8965 19.6522 73.7334 17.9115 72.2671 16.4452L69.4387 19.2736C70.5335 20.3685 71.402 21.6682 71.9945 23.0987L75.69 21.568ZM76.8938 27.6107C76.8938 25.5357 76.4831 23.4825 75.69 21.568L71.9945 23.0987C72.5875 24.5304 72.8938 26.0637 72.8938 27.6107H76.8938ZM74.8426 29.6107H74.8938V25.6107H74.8426V29.6107ZM69.9768 34.4863C73.7605 34.4675 76.8238 31.4042 76.8425 27.6206L72.8426 27.6008C72.8347 29.1907 71.547 30.4785 69.957 30.4863L69.9768 34.4863ZM71.9669 32.5357V32.4863H67.9669V32.5357H71.9669ZM57.2322 34.5357H69.9669V30.5357H57.2322V34.5357ZM59.4335 32.641C59.3128 32.4564 59.2242 32.254 59.1704 32.0423L55.294 33.0292C55.456 33.6655 55.7224 34.2743 56.0854 34.8296L59.4335 32.641ZM60.302 33.3761C59.9472 33.2207 59.6454 32.9652 59.4335 32.641L56.0854 34.8296C56.7227 35.8045 57.6302 36.5726 58.697 37.0399L60.302 33.3761ZM60.3473 33.3959L60.3026 33.3763L58.6964 37.0397L58.741 37.0592L60.3473 33.3959ZM61.1017 33.4907C60.8699 33.4907 60.7234 33.4882 60.6216 33.4833C60.5231 33.4785 60.5016 33.4731 60.5162 33.4758C60.5747 33.4865 60.6323 33.521 60.3476 33.3961L58.7407 37.0591C58.9641 37.1571 59.3217 37.3231 59.7925 37.4098C60.2046 37.4856 60.6438 37.4907 61.1017 37.4907V33.4907ZM63.1017 35.4908V35.4907H59.1017V35.4908H63.1017ZM67.962 33.4908H61.1017V37.4908H67.962V33.4908ZM67.9696 33.4908L67.9597 33.4908L67.9643 37.4908L67.9742 37.4908L67.9696 33.4908ZM67.9841 33.4908L67.9742 33.4908L67.9696 37.4908L67.9794 37.4908L67.9841 33.4908ZM67.9969 33.4908H67.9817V37.4908H67.9969V33.4908ZM69.9969 35.4909V35.4908H65.9969V35.4909H69.9969ZM74.8724 40.3913C74.8724 36.592 71.8019 33.5099 68.0068 33.4909L67.9869 37.4909C69.5818 37.4988 70.8724 38.7944 70.8724 40.3913H74.8724ZM68.0068 47.2918C71.8019 47.2728 74.8724 44.1907 74.8724 40.3913H70.8724C70.8724 41.9883 69.5818 43.2839 67.9869 43.2918L68.0068 47.2918ZM69.9969 45.3411V45.2918H65.9969V45.3411H69.9969ZM61.1017 47.3411H67.9969V43.3411H61.1017V47.3411ZM59.1017 45.341V45.3411H63.1017V45.341H59.1017ZM54.7658 46.0141C56.0758 46.588 57.1187 46.9381 58.1491 47.1308C59.1733 47.3224 60.1002 47.341 61.1017 47.341V43.341C60.133 43.341 59.5207 43.318 58.8845 43.199C58.2544 43.0811 57.5156 42.8517 56.3708 42.3502L54.7658 46.0141ZM47.8846 40.1904C49.5637 42.759 51.9549 44.7828 54.7658 46.0141L56.3708 42.3503C54.2719 41.4308 52.4865 39.9197 51.2327 38.0018L47.8846 40.1904ZM45.3516 32.6786C45.543 35.3509 46.4119 37.9374 47.8846 40.1904L51.2327 38.0018C50.1331 36.3195 49.4843 34.3883 49.3414 32.3929L45.3516 32.6786ZM47.3113 34.5357H47.3465V30.5357H47.3113V34.5357ZM45.3113 31.5582V32.5357H49.3113V31.5582H45.3113ZM45.3113 31.5506V31.5582H49.3113V31.5506H45.3113ZM45.3113 27.6107V31.5506H49.3113V27.6107H45.3113ZM47.3112 29.6107H47.3113V25.6107H47.3112V29.6107ZM67.0418 25.1481C67.0418 24.3927 66.8713 23.6527 66.5496 22.973L62.9342 24.6845C63.0085 24.8414 63.0418 24.998 63.0418 25.1481H67.0418ZM61.1017 27.1481H65.0418V23.1481H61.1017V27.1481ZM57.1616 27.1481H61.1017V23.1481H57.1616V27.1481ZM55.6538 22.973C55.3321 23.6527 55.1616 24.3927 55.1616 25.1481H59.1616C59.1616 24.998 59.1949 24.8414 59.2692 24.6845L55.6538 22.973ZM56.9986 21.2051C56.437 21.6965 55.9751 22.2945 55.6538 22.973L59.2692 24.6845C59.344 24.5265 59.4625 24.3643 59.6326 24.2154L56.9986 21.2051ZM58.9124 20.0826C58.212 20.3365 57.5597 20.7141 56.9986 21.2051L59.6326 24.2154C59.8033 24.0661 60.0198 23.9359 60.2754 23.8432L58.9124 20.0826ZM61.1017 19.7005C60.3561 19.7005 59.6128 19.8288 58.9124 20.0826L60.2754 23.8432C60.5311 23.7506 60.8125 23.7005 61.1017 23.7005V19.7005ZM63.291 20.0826C62.5906 19.8288 61.8474 19.7005 61.1017 19.7005V23.7005C61.3909 23.7005 61.6724 23.7506 61.928 23.8432L63.291 20.0826ZM65.2048 21.2051C64.6437 20.7141 63.9915 20.3365 63.291 20.0826L61.928 23.8432C62.1837 23.9359 62.4001 24.0661 62.5708 24.2154L65.2048 21.2051ZM66.5496 22.973C66.2284 22.2945 65.7664 21.6965 65.2048 21.2051L62.5708 24.2154C62.7409 24.3643 62.8594 24.5265 62.9342 24.6845L66.5496 22.973Z" fill="white" mask="url(#path-13-outside-7_977_2506)"/>
<mask id="path-15-outside-8_977_2506" maskUnits="userSpaceOnUse" x="0" y="0" width="14" height="47" fill="black">
<rect fill="white" width="14" height="47"/>
<path fill-rule="evenodd" clip-rule="evenodd" d="M6.90288 11.8058C9.61066 11.8058 11.8058 9.61066 11.8058 6.90288C11.8058 4.19509 9.61066 2 6.90288 2C4.19509 2 2 4.19509 2 6.90288C2 9.61066 4.19509 11.8058 6.90288 11.8058ZM11.8059 18.9715C11.8059 16.2637 9.61078 14.0686 6.903 14.0686C4.19521 14.0686 2.00012 16.2637 2.00012 18.9715V32.6502L2.00012 37.5531V40.0843C2.00012 42.7921 4.19522 44.9872 6.903 44.9872C9.61078 44.9872 11.8059 42.7921 11.8059 40.0843V32.6502L11.8059 27.7474V18.9715Z"/>
</mask>
<path fill-rule="evenodd" clip-rule="evenodd" d="M6.90288 11.8058C9.61066 11.8058 11.8058 9.61066 11.8058 6.90288C11.8058 4.19509 9.61066 2 6.90288 2C4.19509 2 2 4.19509 2 6.90288C2 9.61066 4.19509 11.8058 6.90288 11.8058ZM11.8059 18.9715C11.8059 16.2637 9.61078 14.0686 6.903 14.0686C4.19521 14.0686 2.00012 16.2637 2.00012 18.9715V32.6502L2.00012 37.5531V40.0843C2.00012 42.7921 4.19522 44.9872 6.903 44.9872C9.61078 44.9872 11.8059 42.7921 11.8059 40.0843V32.6502L11.8059 27.7474V18.9715Z" fill="url(#paint7_linear_977_2506)"/>
<path d="M2.00012 32.6502H0.00012207V32.6502L2.00012 32.6502ZM2.00012 37.5531H4.00012H2.00012ZM11.8059 32.6502H13.8059V32.6502L11.8059 32.6502ZM11.8059 27.7474H9.80587V27.7474L11.8059 27.7474ZM9.80575 6.90288C9.80575 8.50609 8.50609 9.80575 6.90288 9.80575V13.8058C10.7152 13.8058 13.8058 10.7152 13.8058 6.90288H9.80575ZM6.90288 4C8.50609 4 9.80575 5.29966 9.80575 6.90288H13.8058C13.8058 3.09052 10.7152 0 6.90288 0V4ZM4 6.90288C4 5.29966 5.29966 4 6.90288 4V0C3.09052 0 0 3.09052 0 6.90288H4ZM6.90288 9.80575C5.29966 9.80575 4 8.50609 4 6.90288H0C0 10.7152 3.09052 13.8058 6.90288 13.8058V9.80575ZM6.903 16.0686C8.50621 16.0686 9.80587 17.3683 9.80587 18.9715H13.8059C13.8059 15.1592 10.7154 12.0686 6.903 12.0686V16.0686ZM4.00012 18.9715C4.00012 17.3683 5.29978 16.0686 6.903 16.0686V12.0686C3.09064 12.0686 0.00012207 15.1592 0.00012207 18.9715H4.00012ZM4.00012 32.6502V18.9715H0.00012207V32.6502H4.00012ZM4.00012 37.5531L4.00012 32.6502L0.00012207 32.6502L0.000124931 37.5531H4.00012ZM4.00012 40.0843V37.5531H0.000124931V40.0843H4.00012ZM6.903 42.9872C5.29979 42.9872 4.00012 41.6876 4.00012 40.0843H0.000124931C0.000124931 43.8967 3.09065 46.9872 6.903 46.9872V42.9872ZM9.80588 40.0843C9.80588 41.6876 8.50622 42.9872 6.903 42.9872V46.9872C10.7154 46.9872 13.8059 43.8967 13.8059 40.0843H9.80588ZM9.80588 32.6502V40.0843H13.8059V32.6502H9.80588ZM9.80587 27.7474L9.80588 32.6502L13.8059 32.6502L13.8059 27.7474L9.80587 27.7474ZM9.80587 18.9715V27.7474H13.8059V18.9715H9.80587Z" fill="white" mask="url(#path-15-outside-8_977_2506)"/>
<defs>
<linearGradient id="paint0_linear_977_2506" x1="110.353" y1="13.8448" x2="141.085" y2="44.9458" gradientUnits="userSpaceOnUse">
<stop stop-color="#9E3DFF"/>
<stop offset="1" stop-color="#3840FF"/>
</linearGradient>
<linearGradient id="paint1_linear_977_2506" x1="144.06" y1="1.99991" x2="162.928" y2="6.43543" gradientUnits="userSpaceOnUse">
<stop stop-color="#9E3DFF"/>
<stop offset="1" stop-color="#3840FF"/>
</linearGradient>
<linearGradient id="paint2_linear_977_2506" x1="187.185" y1="13.8448" x2="213.954" y2="59.6792" gradientUnits="userSpaceOnUse">
<stop stop-color="#9E3DFF"/>
<stop offset="1" stop-color="#3840FF"/>
</linearGradient>
<linearGradient id="paint3_linear_977_2506" x1="16.7085" y1="14.0686" x2="47.0738" y2="42.0445" gradientUnits="userSpaceOnUse">
<stop stop-color="#9E3DFF"/>
<stop offset="1" stop-color="#3840FF"/>
</linearGradient>
<linearGradient id="paint4_linear_977_2506" x1="77.8469" y1="13.9254" x2="108.427" y2="43.382" gradientUnits="userSpaceOnUse">
<stop stop-color="#9E3DFF"/>
<stop offset="1" stop-color="#3840FF"/>
</linearGradient>
<linearGradient id="paint5_linear_977_2506" x1="156.649" y1="13.8203" x2="187.537" y2="41.6757" gradientUnits="userSpaceOnUse">
<stop stop-color="#9E3DFF"/>
<stop offset="1" stop-color="#3840FF"/>
</linearGradient>
<linearGradient id="paint6_linear_977_2506" x1="47.3113" y1="13.8204" x2="78.1998" y2="41.6754" gradientUnits="userSpaceOnUse">
<stop stop-color="#9E3DFF"/>
<stop offset="1" stop-color="#3840FF"/>
</linearGradient>
<linearGradient id="paint7_linear_977_2506" x1="2" y1="2" x2="20.8686" y2="6.43563" gradientUnits="userSpaceOnUse">
<stop stop-color="#9E3DFF"/>
<stop offset="1" stop-color="#3840FF"/>
</linearGradient>
</defs>
</svg>
