<svg width="111" height="32" viewBox="0 0 111 32" fill="none" xmlns="http://www.w3.org/2000/svg">
<path d="M10.6271 31.5101C14.0278 31.5101 16.8334 30.4474 18.7888 28.492C20.7867 26.4941 21.7219 23.8586 21.7219 20.1178V1.24404H13.5177V20.0753C13.5177 22.8384 12.1999 24.2411 10.117 24.2411C8.28916 24.2411 6.92889 23.2209 5.4836 21.4781L0.170034 26.4941C2.25295 29.3422 5.44109 31.5101 10.6271 31.5101ZM43.718 31.5951C52.8999 31.5951 59.7862 24.6662 59.7862 16.122V16.037C59.7862 7.49279 52.9849 0.648919 43.803 0.648919C34.6212 0.648919 27.7348 7.57781 27.7348 16.122V16.207C27.7348 24.7512 34.5362 31.5951 43.718 31.5951ZM43.803 24.1561C39.2971 24.1561 36.194 20.4154 36.194 16.122V16.037C36.194 11.7436 39.2121 8.08791 43.718 8.08791C48.2664 8.08791 51.3695 11.8287 51.3695 16.122V16.207C51.3695 20.5004 48.3514 24.1561 43.803 24.1561ZM66.3774 31H74.6665V1.24404H66.3774V31ZM82.2394 31H90.401V14.6767L103.111 31H110.337V1.24404H102.176V16.9722L89.9334 1.24404H82.2394V31Z" fill="url(#paint0_linear_166_2284)"/>
<defs>
<linearGradient id="paint0_linear_166_2284" x1="0" y1="-11" x2="38.1454" y2="74.4252" gradientUnits="userSpaceOnUse">
<stop stop-color="#9E3DFF"/>
<stop offset="1" stop-color="#3840FF"/>
</linearGradient>
</defs>
</svg>
