<svg width="144" height="32" viewBox="0 0 144 32" fill="none" xmlns="http://www.w3.org/2000/svg">
<path d="M0.635528 31H23.2926V23.7736H8.88218V1.24404H0.635528V31ZM42.2162 31.5951C51.398 31.5951 58.2844 24.6662 58.2844 16.122V16.037C58.2844 7.49279 51.483 0.648919 42.3012 0.648919C33.1193 0.648919 26.233 7.57781 26.233 16.122V16.207C26.233 24.7512 33.0343 31.5951 42.2162 31.5951ZM42.3012 24.1561C37.7953 24.1561 34.6922 20.4154 34.6922 16.122V16.037C34.6922 11.7436 37.7103 8.08791 42.2162 8.08791C46.7646 8.08791 49.8677 11.8287 49.8677 16.122V16.207C49.8677 20.5004 46.8496 24.1561 42.3012 24.1561ZM79.881 31.5951C85.2796 31.5951 89.658 29.5972 92.8036 27.0042V13.614H79.1159V19.6502H84.9821V23.2634C83.7493 24.0711 82.219 24.4962 80.2211 24.4962C75.5027 24.4962 72.1445 21.053 72.1445 16.2495V16.1645C72.1445 11.6161 75.4601 8.00289 79.7535 8.00289C82.6866 8.00289 84.812 9.0231 86.9374 10.8085L91.7834 4.98479C88.6378 2.26424 84.9395 0.648919 79.711 0.648919C70.4866 0.648919 63.6853 7.45028 63.6853 16.122V16.207C63.6853 25.2188 70.6142 31.5951 79.881 31.5951ZM99.6711 31H107.96V1.24404H99.6711V31ZM115.533 31H123.695V14.6767L136.405 31H143.631V1.24404H135.47V16.9722L123.227 1.24404H115.533V31Z" fill="url(#paint0_linear_166_2258)"/>
<defs>
<linearGradient id="paint0_linear_166_2258" x1="-2" y1="-11" x2="29.1276" y2="80.9172" gradientUnits="userSpaceOnUse">
<stop stop-color="#9E3DFF"/>
<stop offset="1" stop-color="#3840FF"/>
</linearGradient>
</defs>
</svg>
