<svg width="145" height="27" viewBox="0 0 145 27" fill="none" xmlns="http://www.w3.org/2000/svg">
<path fill-rule="evenodd" clip-rule="evenodd" d="M92.2985 2.97979C92.2985 4.62549 90.9644 5.95959 89.3187 5.95959C87.673 5.95959 86.3389 4.62549 86.3389 2.97979C86.3389 1.3341 87.673 0 89.3187 0C90.9644 0 92.2985 1.3341 92.2985 2.97979ZM89.3187 7.3349C90.9644 7.3349 92.2985 8.669 92.2985 10.3147V15.6483V18.6281V23.1463C92.2985 24.792 90.9644 26.1261 89.3187 26.1261C87.673 26.1261 86.3389 24.792 86.3389 23.1463V21.6079V18.6281V10.3147C86.3389 8.669 87.673 7.3349 89.3187 7.3349ZM5.95965 10.3148C5.95965 8.66906 4.62555 7.33496 2.97985 7.33496C1.33416 7.33496 6.10352e-05 8.66906 6.10352e-05 10.3148V18.6282V21.608V23.1464C6.10352e-05 24.7921 1.33416 26.1262 2.97986 26.1262C4.62555 26.1262 5.95965 24.7921 5.95965 23.1464V18.6282L5.95965 15.6484V10.3148ZM71.5655 9.09228C70.7815 7.48061 68.9463 6.75768 67.4664 7.47757C65.9865 8.19747 65.4224 10.0876 66.2064 11.6993L70.1669 19.8409L71.5865 22.7591L72.3194 24.2657C72.5726 24.7863 72.9356 25.2142 73.3608 25.5306C73.5255 25.666 73.7076 25.7837 73.9063 25.8804C74.3082 26.0759 74.7363 26.165 75.1624 26.1588C75.5886 26.165 76.0166 26.0759 76.4185 25.8804C76.6172 25.7837 76.7994 25.666 76.964 25.5306C77.3893 25.2142 77.7522 24.7863 78.0055 24.2657L78.7384 22.7591L80.1579 19.8409L84.1185 11.6993C84.9025 10.0876 84.3384 8.19747 82.8585 7.47757C81.3786 6.75768 79.5434 7.48061 78.7593 9.09228L76.2184 14.3157L75.1624 16.4864L74.1065 14.3157L71.5655 9.09228ZM118.261 9.09228C117.477 7.48061 115.642 6.75768 114.162 7.47757C112.682 8.19747 112.118 10.0876 112.902 11.6993L116.863 19.8409L118.282 22.7591L119.015 24.2657C119.268 24.7863 119.631 25.2142 120.057 25.5306C120.221 25.666 120.403 25.7837 120.602 25.8804C121.004 26.0759 121.432 26.165 121.858 26.1588C122.284 26.165 122.712 26.0759 123.114 25.8804C123.313 25.7837 123.495 25.666 123.66 25.5306C124.085 25.2142 124.448 24.7863 124.701 24.2657L125.434 22.7591L126.854 19.8409L128.3 16.8686L129.746 19.8409L131.165 22.7591L131.898 24.2657C132.151 24.7863 132.514 25.2142 132.939 25.5306C133.104 25.666 133.286 25.7837 133.485 25.8804C133.887 26.0759 134.315 26.165 134.741 26.1588C135.167 26.165 135.595 26.0759 135.997 25.8804C136.196 25.7837 136.378 25.666 136.543 25.5306C136.968 25.2142 137.331 24.7863 137.584 24.2657L138.317 22.7591L139.737 19.8409L143.697 11.6993C144.481 10.0876 143.917 8.19748 142.437 7.47758C140.957 6.75769 139.122 7.48062 138.338 9.09229L135.797 14.3157L134.741 16.4864L133.685 14.3157L131.144 9.09229C130.885 8.55917 130.51 8.12329 130.072 7.80471C129.915 7.67884 129.742 7.56881 129.554 7.47757C129.153 7.28224 128.725 7.19313 128.299 7.19918C127.874 7.19325 127.446 7.28236 127.045 7.47758C126.858 7.56876 126.685 7.67871 126.528 7.80449C126.089 8.12309 125.715 8.55904 125.455 9.09228L122.914 14.3157L121.858 16.4864L120.802 14.3157L118.261 9.09228Z" fill="#F5F5F7"/>
<path fill-rule="evenodd" clip-rule="evenodd" d="M5.95959 2.97979C5.95959 4.62549 4.62549 5.95959 2.97979 5.95959C1.3341 5.95959 0 4.62549 0 2.97979C0 1.3341 1.3341 0 2.97979 0C4.62549 0 5.95959 1.3341 5.95959 2.97979ZM8.93926 10.3147C8.93926 8.66901 10.2734 7.33491 11.9191 7.33491H22.7627C24.4084 7.33491 25.7425 8.66901 25.7425 10.3147C25.7425 11.9604 24.4084 13.2945 22.7627 13.2945H20.1708V23.1507C20.1708 24.7964 18.8367 26.1305 17.191 26.1305C15.5453 26.1305 14.2112 24.7964 14.2112 23.1507V13.2945H11.9191C10.2734 13.2945 8.93926 11.9604 8.93926 10.3147Z" fill="#F5F5F7"/>
<path fill-rule="evenodd" clip-rule="evenodd" d="M52.0686 16.763C52.0688 16.7597 52.0701 16.7274 52.082 16.6644C52.0954 16.5933 52.12 16.4961 52.1618 16.3747C52.2467 16.1287 52.3877 15.8273 52.5934 15.5003C53.0124 14.8343 53.6098 14.2035 54.2841 13.7734C54.9439 13.3525 55.5966 13.1699 56.2225 13.2103C56.8254 13.2493 57.6896 13.5125 58.7718 14.4865C59.9945 15.5869 61.8777 15.4877 62.978 14.2651C64.0784 13.0424 63.9793 11.1593 62.7566 10.0589C60.8455 8.33886 58.7538 7.40477 56.6066 7.26601C54.6556 7.13993 52.9007 7.68584 51.4573 8.52222C50.9135 7.80109 50.0495 7.33492 49.0767 7.33492C47.431 7.33492 46.0969 8.66902 46.0969 10.3147V18.6282L46.0969 21.608V23.1463C46.0969 24.792 47.431 26.1261 49.0767 26.1261C50.7224 26.1261 52.0565 24.792 52.0565 23.1463V18.6282L52.0565 17.0328C52.0645 16.9438 52.0686 16.8537 52.0686 16.7627L52.0686 16.7633C52.0686 16.7633 52.0686 16.7632 52.0686 16.763Z" fill="#F5F5F7"/>
<path fill-rule="evenodd" clip-rule="evenodd" d="M27.5386 15.5653C27.5386 14.4646 27.7554 13.3747 28.1766 12.3579C28.5978 11.341 29.2152 10.4171 29.9935 9.63879C30.7717 8.86051 31.6957 8.24315 32.7126 7.82195C33.7294 7.40075 34.8193 7.18396 35.9199 7.18396C37.0206 7.18396 38.1105 7.40075 39.1273 7.82195C40.1442 8.24315 41.0682 8.86051 41.8464 9.63879C42.6247 10.4171 43.2421 11.341 43.6633 12.3579C44.0845 13.3747 44.3023 14.4646 44.3023 15.5653H44.2711C44.2631 17.1982 42.9409 18.5204 41.308 18.5286V18.5586H33.5683C33.6339 18.8163 33.7417 19.0628 33.8887 19.2877C34.1468 19.6825 34.5143 19.9935 34.9463 20.1827L34.9734 20.1946C35.2823 20.3301 35.338 20.3546 35.92 20.3546V20.3546H40.0955H40.1107V20.3546C41.7486 20.3628 43.0739 21.6931 43.0739 23.3329C43.0739 24.9728 41.7486 26.3031 40.1107 26.3113V26.3412H35.92C34.7227 26.3412 34.049 26.2905 32.557 25.6369C31.065 24.9833 29.7958 23.9092 28.9046 22.5457C28.1229 21.3499 27.6617 19.9771 27.5601 18.5586H27.5387V15.5653L27.5386 15.5653ZM38.1324 13.2667C38.2527 13.5209 38.3146 13.7934 38.3146 14.0686H35.92H33.5253C33.5253 13.7934 33.5873 13.5209 33.7076 13.2667C33.8279 13.0125 34.0043 12.7815 34.2267 12.5869C34.4491 12.3924 34.713 12.238 35.0036 12.1327C35.2941 12.0274 35.6055 11.9732 35.92 11.9732C36.2344 11.9732 36.5458 12.0274 36.8364 12.1327C37.1269 12.238 37.3909 12.3924 37.6133 12.5869C37.8356 12.7815 38.012 13.0125 38.1324 13.2667Z" fill="#F5F5F7"/>
<path fill-rule="evenodd" clip-rule="evenodd" d="M93.9904 15.5653C93.9904 14.4646 94.2071 13.3747 94.6283 12.3579C95.0495 11.341 95.6669 10.4171 96.4452 9.63879C97.2235 8.86051 98.1474 8.24315 99.1643 7.82195C100.181 7.40075 101.271 7.18396 102.372 7.18396C103.472 7.18396 104.562 7.40075 105.579 7.82195C106.596 8.24315 107.52 8.86051 108.298 9.63879C109.076 10.4171 109.694 11.341 110.115 12.3579C110.536 13.3747 110.754 14.4646 110.754 15.5653H110.723C110.715 17.1982 109.393 18.5205 107.76 18.5286V18.5586H100.02C100.086 18.8163 100.194 19.0628 100.341 19.2877C100.599 19.6825 100.966 19.9935 101.398 20.1827L101.425 20.1946C101.734 20.3301 101.79 20.3546 102.372 20.3546V20.3546H106.548H106.562V20.3546C108.201 20.3626 109.526 21.693 109.526 23.3329C109.526 24.9729 108.201 26.3033 106.562 26.3113V26.3412H102.372C101.174 26.3412 100.501 26.2905 99.0088 25.6369C97.5168 24.9833 96.2476 23.9092 95.3564 22.5457C94.5747 21.3499 94.1135 19.977 94.0119 18.5586H93.9904V15.5653H93.9904ZM104.584 13.2667C104.704 13.5209 104.766 13.7934 104.766 14.0686H102.372H99.9769C99.9769 13.7934 100.039 13.5209 100.159 13.2667C100.28 13.0125 100.456 12.7815 100.678 12.5869C100.901 12.3924 101.165 12.238 101.455 12.1327C101.746 12.0274 102.057 11.9732 102.372 11.9732C102.686 11.9732 102.997 12.0274 103.288 12.1327C103.578 12.238 103.842 12.3924 104.065 12.5869C104.287 12.7815 104.464 13.0125 104.584 13.2667Z" fill="#F5F5F7"/>
</svg>
