<svg width="703" height="325" viewBox="0 0 703 325" fill="none" xmlns="http://www.w3.org/2000/svg">
<path d="M14.9037 173.59C-24.768 233.055 24.066 286.082 53.442 305.162L661.837 304.133C687.907 297.214 695.591 280.866 700.091 264.805C710.293 228.402 679.099 208.785 661.837 204.27C605.163 189.445 586.668 134.057 573.142 98.6415C545.712 26.8225 467.445 14.2213 417.855 14.2213C349.62 13.3977 283.61 56.2255 265.969 79.9044C236.272 119.767 167.923 123.447 137.036 122.115C64.4934 118.985 26.8548 155.677 14.9037 173.59Z" fill="#E6E7FF"/>
<path fill-rule="evenodd" clip-rule="evenodd" d="M173.712 286.537C130.869 286.059 63.5937 285.309 36.2728 303.145C30.2751 307.061 24.5382 313.442 41.2274 316.532C70.1729 321.889 147.882 324.357 219.594 324.357L350.761 324.357H482.189C553.901 324.357 631.611 321.889 660.556 316.532C677.245 313.443 671.508 307.061 665.511 303.145C638.19 285.309 570.914 286.059 528.072 286.537C521.844 286.606 516.132 286.67 511.135 286.67L351.022 286.67V286.67L190.649 286.67C185.651 286.67 179.94 286.606 173.712 286.537Z" fill="#D3D5FF"/>
<rect x="243.868" y="228.055" width="11.9831" height="12.2418" fill="#787879"/>
<rect x="245.506" y="240.296" width="8.62097" height="16.7247" fill="#ACADAD"/>
<rect x="243.868" y="257.021" width="11.9831" height="7.41403" fill="#787879"/>
<path d="M240.937 267.366C240.937 265.747 242.249 264.435 243.868 264.435H255.765C257.384 264.435 258.696 265.747 258.696 267.366V268.832H240.937V267.366Z" fill="#ACADAD"/>
<rect x="240.937" y="268.832" width="17.7592" height="4.39669" fill="#787879"/>
<path d="M218.824 292.022L240.937 273.228H245.032L224.04 292.022H218.824Z" fill="#ACADAD"/>
<path d="M216.108 294.005C216.108 292.91 216.996 292.022 218.091 292.022H224.298C224.536 292.022 224.729 292.215 224.729 292.453V294.005H216.108Z" fill="#787879"/>
<path d="M214.47 295.729C214.47 294.777 215.242 294.005 216.195 294.005H224.729V297.453H214.47V295.729Z" fill="#ACADAD"/>
<path d="M280.809 292.022L258.696 273.228H254.601L275.593 292.022H280.809Z" fill="#ACADAD"/>
<path d="M283.524 294.005C283.524 292.91 282.637 292.022 281.542 292.022H275.334C275.096 292.022 274.903 292.215 274.903 292.453V294.005H283.524Z" fill="#787879"/>
<path d="M285.162 295.729C285.162 294.777 284.39 294.005 283.438 294.005H274.903V297.453H285.162V295.729Z" fill="#ACADAD"/>
<path d="M248.006 273.228H251.713L252.575 289.522H247.144L248.006 273.228Z" fill="#ACADAD"/>
<path d="M247.123 289.522H252.596L253.868 293.143H245.851L247.123 289.522Z" fill="#787879"/>
<path d="M245.829 293.143H253.89L254.701 294.448C255.165 295.195 254.628 296.16 253.749 296.16H245.97C245.091 296.16 244.554 295.195 245.018 294.448L245.829 293.143Z" fill="#ACADAD"/>
<path d="M203.565 114.689C208.427 112.896 217.013 119.344 220.462 122.793L250.204 155.035L271.713 182.32L297.404 204.088L284.128 222.365C275.645 230.262 253.092 229.693 243.092 229.434C216.505 228.744 209.599 219.735 209.255 211.201C208.936 203.319 207.142 184.26 206.711 179.26C205.059 160.089 202.516 136.443 200.418 127.06C197.901 117.887 201.711 115.373 203.565 114.689Z" fill="#ACADAD"/>
<path d="M215.634 139.776C214.786 126.025 206.151 118.266 201.367 116.154C205.843 111.42 213.515 117.158 217.171 119.893L217.186 119.904L236.195 133.396L250.506 169.906L293.352 199.648L297.62 213.959L286.499 217.063C286.326 212.821 274.688 212.149 268.998 212.149L233.868 211.459C219.643 210.554 219.169 187.493 218.781 183.182C218.456 179.575 216.453 153.052 215.634 139.776Z" fill="#787879"/>
<path d="M240.592 79.4722C241.04 83.3689 238.106 86.5845 236.583 87.7053L235.376 91.1968L242.144 97.3176L251.368 98.3091V85.9811L248.049 78.4808L240.592 79.4722Z" fill="#EDB387"/>
<mask id="mask0_310_1343" style="mask-type:alpha" maskUnits="userSpaceOnUse" x="235" y="78" width="17" height="21">
<path d="M240.592 79.4722C241.04 83.3689 238.106 86.5845 236.583 87.7053L235.376 91.1968L242.144 97.3176L251.368 98.3091V85.9811L248.049 78.4808L240.592 79.4722Z" fill="#EDB387"/>
</mask>
<g mask="url(#mask0_310_1343)">
<path d="M251.497 93.9122C246.256 92.6708 243.078 84.9751 242.144 81.2825L241.281 79.2135L243.609 78.9548L253.911 83.7826L256.929 91.8432C257.302 93.0501 256.739 95.1536 251.497 93.9122Z" fill="#D79761"/>
</g>
<path d="M246.368 87.1879C244.575 85.9465 242.862 81.3831 242.23 79.2566L237.574 77.4462L238.35 68.739L249.04 59.256L261.282 66.1528C263.42 70.3598 263.093 77.0439 262.661 79.8601C260.799 87.9293 255.966 90.0041 253.782 90.0328C250.42 90.0771 247.402 88.3374 246.368 87.1879Z" fill="#EDB387"/>
<path d="M241.109 71.1097C243.868 70.3338 244.773 73.9259 244.687 75.7219C245.722 74.8253 245.951 73.0207 245.937 72.2304C246.006 71.6787 246.454 71.3396 246.67 71.239C248.429 70.6528 248.926 68.1498 248.954 66.9716C257.196 72.3856 264.601 70.3194 267.274 68.6096C273.171 65.1267 271.597 59.6007 270.765 57.2299C268.903 51.9194 261.052 51.3964 257.36 51.7987C254.67 48.2814 249.4 47.7612 247.101 47.9624C241.928 48.415 238.782 53.4223 237.92 56.1954C231.712 57.5058 230.764 65.7647 231.583 69.6872C234.928 80.791 239.069 83.1359 240.721 82.9204C243.446 81.9204 243.293 79.6013 242.877 78.5668C241.911 78.0496 240.545 76.4547 240.204 75.7219C239.032 73.2046 240.247 71.3521 241.109 71.1097Z" fill="#172138"/>
<path d="M335.38 282.324L334.173 274.823L347.664 269.306L350.165 278.099L347.664 284.608L335.38 282.324Z" fill="#EDB387"/>
<path d="M283.611 276.332L282.964 270.34L273.395 264.435L270.679 269.435L273.395 277.754L283.611 276.332Z" fill="#EDB387"/>
<path d="M271.8 265.728C272.938 248.555 283.654 221.014 288.87 209.39L289.775 204.864H318.138L315.595 218.787C303.077 251.34 288.798 268.041 283.223 272.323C278.705 272.461 273.725 267.984 271.8 265.728Z" fill="#252BB3"/>
<path d="M311.758 210.295C245.721 214.468 243.695 205.554 237.919 192.364C240.348 187.407 249.963 177.182 268.998 175.941C288.033 174.699 310.939 178.626 319.905 179.906C332.457 181.7 337.578 194.447 338.569 200.597L349.259 271.72C345.397 275.478 336.155 276.16 332.017 276.03C317.81 256.03 312.591 223.873 311.758 210.295Z" fill="#3840FF"/>
<path d="M216.712 123.31C216.971 109.689 225.376 98.6825 230.376 95.3778L235.85 93.6536L252.446 100.637L272.317 149.647L285.119 173.484C274.912 176.036 247.417 189.95 234.945 196.588C232.98 183.208 230.98 170.682 223.652 154.302C216.324 137.922 216.784 129.043 216.712 123.31Z" fill="#FFFEFF"/>
<path d="M320.509 145.465C317.491 146.198 312.836 146.672 312.836 146.672L315.164 154.733C315.164 154.733 318.353 152.233 321.888 151.5C325.423 150.767 331.112 153.138 333.699 152.276C336.285 151.414 337.449 149 338.483 148.612C339.518 148.224 340.897 148.267 341.802 149.043C342.708 149.819 343.096 151.371 344.001 151.629C344.906 151.888 346.156 151.543 346.415 150.293C346.673 149.043 344.777 146.845 342.966 145.465C341.156 144.086 336.673 142.017 331.5 142.319C326.328 142.621 323.526 144.733 320.509 145.465Z" fill="#EDB387"/>
<path d="M260.894 136.241C259.343 133.793 254.615 118.123 252.446 110.594C252.791 108.87 253.696 106.335 254.558 109.99C255.42 113.646 257.015 116.715 259.774 120.724C262.532 124.732 269.875 139.23 273.567 146.371L270.421 147.966L260.894 136.241Z" fill="#9E3DFF"/>
<path d="M250.42 110.335C249.42 108.956 249.098 107.16 249.515 105.981L250.118 105.162V103.093H252.316C253.73 103.059 255.104 105.809 255.334 107.188C255.748 109.982 255.104 110.953 254.299 111.068L254.266 111.071C252.957 111.174 251.132 111.318 250.42 110.335Z" fill="#9E3DFF"/>
<path d="M251.627 97.7487C246.247 96.1624 239.701 90.4783 236.799 87.5328L232.014 90.6795C230.048 92.3692 230.103 94.5158 230.376 95.3779C232.204 94.7572 235.448 95.6365 236.842 96.1538C244.359 99.8781 247.302 106.456 247.92 109.128L252.834 102.016C254.558 99.7056 252.704 98.0664 251.627 97.7487Z" fill="#FFFEFF"/>
<path d="M249.342 107.059L247.92 109.128C247.302 106.456 244.359 99.8778 236.842 96.1536C235.448 95.6363 232.204 94.757 230.376 95.3777" stroke="#ACADAD" stroke-width="0.603468"/>
<path d="M254.472 171.07C250.377 169.988 234.687 146.112 226.281 133.052L234.859 129.301L273.007 156.802L270.55 171.975C266.895 172.699 258.912 172.243 254.472 171.07Z" fill="#ACADAD"/>
<path d="M267.963 165.423C254.825 165.078 234.816 143.555 226.453 132.836L242.575 108.74C248.23 111.361 254.303 121.37 256.756 127.577C261.067 138.483 269.86 145.632 271.929 146.285C275.101 147.285 300.838 145.293 313.31 144.172C315.689 148.035 315.795 154.661 315.551 157.492C281.067 165.561 269.472 165.463 267.963 165.423Z" fill="#FFFEFF"/>
<path d="M226.453 132.836C234.816 143.555 254.825 165.078 267.963 165.423C271.11 165.38 275.205 165.423 280.205 164.389M273.567 146.5C270.032 146.5 261.067 138.483 256.756 127.577C254.303 121.37 248.23 111.361 242.575 108.74" stroke="#ACADAD" stroke-width="0.603468"/>
<path d="M283.481 274.823C276.274 274.996 271.8 270.872 270.463 268.789C267.636 270.651 264.917 277.956 263.911 281.375C264.98 285.099 268.725 285.513 270.463 285.255L270.851 283.66C274.886 292.315 285.55 297.367 288.438 297.583C291.326 297.798 292.792 297.324 293.309 296.979C293.826 296.634 294.947 295.083 293.955 293.832C292.964 292.582 289.516 291.634 287.188 287.884C284.86 284.134 283.481 274.823 283.481 274.823Z" fill="#303132"/>
<path d="M336.112 294.867L335.207 281.289C335.207 281.289 337.319 282.194 342.018 281.289C346.716 280.384 350.164 277.927 350.164 277.927C350.164 277.927 363.57 289.22 366.415 289.781C369.26 290.341 370.984 290.341 373.57 290.341C376.157 290.341 376.157 292.367 376.157 292.367C376.157 292.367 376.157 294.867 374.476 294.867H349.518C349.518 294.867 349.087 293.1 347.794 293.186C346.5 293.272 345.983 294.867 345.983 294.867H336.112Z" fill="#303132"/>
<path d="M315.724 311.075L305.422 174.174H312.448L320.379 310.687L315.724 311.075Z" fill="#9B9C9C"/>
<path d="M263.351 303.962L286.154 174.174H278.395L258.955 303.143L263.351 303.962Z" fill="#9B9C9C"/>
<path d="M446.805 297.54V174.217H456.159L450.383 297.54H446.805Z" fill="#9B9C9C"/>
<path d="M474.521 174.217H465.168L490.082 311.204L494.091 310.471L474.521 174.217Z" fill="#9B9C9C"/>
<rect x="255.765" y="164.087" width="246.215" height="10.0865" rx="3.27597" fill="#9B9C9C"/>
<rect x="325.854" y="161.759" width="63.0093" height="2.32766" rx="1.05015" fill="url(#paint0_linear_310_1343)"/>
<path d="M354.279 133.182C354.593 132.375 355.37 131.844 356.236 131.844H398.894C400.351 131.844 401.365 133.292 400.868 134.661L390.69 162.703C390.388 163.534 389.599 164.087 388.715 164.087H342.233L354.279 133.182Z" fill="url(#paint1_linear_310_1343)"/>
<rect width="6.46572" height="6.56315" transform="translate(368.786 144.69)" fill="url(#paint2_linear_310_1343)"/>
<path fill-rule="evenodd" clip-rule="evenodd" d="M369.534 146.186C369.948 146.186 370.283 145.851 370.283 145.438C370.283 145.025 369.948 144.69 369.534 144.69C369.121 144.69 368.786 145.025 368.786 145.438C368.786 145.851 369.121 146.186 369.534 146.186ZM370.283 147.28C370.283 146.867 369.948 146.532 369.534 146.532C369.121 146.532 368.786 146.867 368.786 147.28V149.368C368.786 149.782 369.121 150.117 369.534 150.117H370.057V150.503C370.057 150.917 370.392 151.252 370.805 151.252C371.219 151.252 371.554 150.917 371.554 150.503V149.368C371.554 148.955 371.219 148.62 370.805 148.62H370.283V147.28ZM371.031 147.28C371.031 146.867 371.366 146.532 371.78 146.532H374.503C374.917 146.532 375.252 146.867 375.252 147.28C375.252 147.694 374.917 148.029 374.503 148.029H373.852V150.504C373.852 150.918 373.517 151.253 373.104 151.253C372.69 151.253 372.355 150.918 372.355 150.504V148.029H371.78C371.366 148.029 371.031 147.694 371.031 147.28Z" fill="#F8FDFE"/>
<path d="M390.942 59.5534C390.942 56.6275 393.314 54.2556 396.239 54.2556H460.661C463.587 54.2556 465.959 56.6275 465.959 59.5534V64.2685H390.942V59.5534Z" fill="url(#paint3_linear_310_1343)"/>
<path d="M390.942 105.856C390.942 108.782 393.314 111.154 396.24 111.154H460.661C463.587 111.154 465.959 108.782 465.959 105.856V64.2688H390.942V105.856Z" fill="#FFFDFE"/>
<circle cx="443.151" cy="59.2623" r="1.61583" fill="white"/>
<circle cx="450.144" cy="59.2623" r="1.61583" fill="#E0A143"/>
<circle cx="457.137" cy="59.2623" r="1.61583" fill="#DB5752"/>
<path fill-rule="evenodd" clip-rule="evenodd" d="M443.199 54.2556H396.239C393.314 54.2556 390.942 56.6275 390.942 59.5534V64.2685H443.199V54.2556ZM443.199 64.2688H390.942V100.206H437.902C440.827 100.206 443.199 97.8337 443.199 94.9078V64.2688Z" fill="black" fill-opacity="0.22"/>
<path d="M314.215 9.68553C314.215 4.92431 318.074 1.06458 322.836 1.06458H427.667C432.428 1.06458 436.287 4.92431 436.287 9.68554V17.3582H314.215V9.68553Z" fill="url(#paint4_linear_310_1343)"/>
<path d="M314.215 85.0327C314.215 89.794 318.074 93.6537 322.836 93.6537H427.667C432.428 93.6537 436.287 89.7939 436.287 85.0327V17.3581H314.215V85.0327Z" fill="#FFFDFE"/>
<path d="M324.335 6.61781H325.079V11H324.335V6.61781ZM328.38 7.28993V11H327.636V7.28993H326.31V6.61781H329.706V7.28993H328.38ZM334.034 6.61781V7.30785H331.695V8.47285H333.792V9.12704H331.695V10.301H334.106V11H330.951V6.61781H334.034ZM338.04 9.40485L339.187 11H338.246L337.198 9.52135H336.23V11H335.486V6.61781H337.117C337.78 6.61781 338.255 6.73133 338.542 6.95835C338.835 7.1794 338.981 7.54085 338.981 8.0427C338.981 8.76559 338.667 9.21964 338.04 9.40485ZM337.144 8.8582C337.556 8.8582 337.84 8.79546 337.995 8.67C338.151 8.54454 338.228 8.33245 338.228 8.03374C338.228 7.74697 338.151 7.5528 337.995 7.45124C337.84 7.3437 337.562 7.28993 337.162 7.28993H336.23V8.8582H337.144ZM342.486 11H341.662L339.896 6.61781H340.73L342.074 9.88877L343.427 6.61781H344.252L342.486 11ZM345.311 6.61781H346.055V11H345.311V6.61781ZM350.781 6.61781V7.30785H348.442V8.47285H350.539V9.12704H348.442V10.301H350.853V11H347.698V6.61781H350.781ZM353.604 9.77227L354.581 6.61781H355.244L356.221 9.77227L357.323 6.61781H358.121L356.588 11H355.853L354.939 7.99789H354.886L353.963 11H353.228L351.695 6.61781H352.493L353.604 9.77227Z" fill="white"/>
<circle cx="399.175" cy="9.2113" r="2.62939" fill="white"/>
<circle cx="410.554" cy="9.2113" r="2.62939" fill="#E0A143"/>
<circle cx="421.934" cy="9.2113" r="2.62939" fill="#DB5752"/>
<circle cx="421.761" cy="36.7984" r="6.68125" fill="#ACADAD"/>
<circle cx="421.761" cy="55.0748" r="6.68125" fill="#ACADAD"/>
<circle cx="421.761" cy="73.61" r="6.68125" fill="#ACADAD"/>
<path fill-rule="evenodd" clip-rule="evenodd" d="M417.666 35.0345C417.666 34.7601 417.775 34.497 417.969 34.303C418.163 34.109 418.426 34 418.701 34H422.58C422.831 34 423.074 34.0911 423.262 34.2565C423.451 34.4219 423.573 34.6502 423.606 34.899L425.215 34.1841C425.293 34.1491 425.38 34.1342 425.466 34.1409C425.551 34.1477 425.634 34.1758 425.707 34.2227C425.779 34.2696 425.838 34.3339 425.88 34.4096C425.921 34.4854 425.942 34.5702 425.942 34.6564V38.5162C425.942 38.6023 425.921 38.6871 425.88 38.7627C425.838 38.8384 425.779 38.9026 425.707 38.9495C425.635 38.9965 425.552 39.0246 425.466 39.0314C425.38 39.0382 425.294 39.0234 425.215 38.9884L423.606 38.2736C423.573 38.5223 423.451 38.7507 423.262 38.9161C423.074 39.0814 422.831 39.1726 422.58 39.1726H418.701C418.426 39.1726 418.163 39.0636 417.969 38.8696C417.775 38.6756 417.666 38.4124 417.666 38.1381V35.0345Z" fill="white"/>
<path d="M418.765 51.4876L419.162 51.2216C419.535 50.9723 420.034 51.0576 420.329 51.4207L420.917 52.1442C421.172 52.4593 421.21 52.9061 421.009 53.2485L420.45 54.2017C420.624 54.6254 420.895 55.0135 421.264 55.3659C421.616 55.7082 422.033 55.9764 422.491 56.1545L423.327 55.5785C423.644 55.3607 424.065 55.3849 424.37 55.6389L425.084 56.23C425.44 56.5253 425.541 57.0449 425.321 57.4458L425.085 57.8754C424.85 58.303 424.412 58.5602 423.936 58.5498C422.81 58.5258 421.586 57.8439 420.261 56.5043C418.935 55.1626 418.239 53.8997 418.174 52.7171C418.146 52.2194 418.371 51.7516 418.765 51.4876Z" fill="white"/>
<path d="M419.863 69.5032C419.886 69.4806 419.912 69.4627 419.942 69.4505C419.972 69.4383 420.003 69.4321 420.035 69.4321H423.445C423.509 69.4321 423.571 69.4578 423.617 69.5035C423.663 69.5491 423.688 69.6111 423.688 69.6757C423.688 70.0069 423.522 70.2475 423.374 70.3961C423.312 70.457 423.252 70.5052 423.201 70.5412V72.6995L423.239 72.7229C423.338 72.7847 423.471 72.8758 423.605 72.9932C423.864 73.2192 424.176 73.5855 424.176 74.0594C424.176 74.124 424.15 74.186 424.104 74.2316C424.059 74.2773 423.997 74.303 423.932 74.303H421.984V76.4949C421.984 76.6293 421.875 77.2255 421.74 77.2255C421.606 77.2255 421.497 76.6293 421.497 76.4949V74.303H419.548C419.484 74.303 419.422 74.2773 419.376 74.2316C419.33 74.186 419.305 74.124 419.305 74.0594C419.305 73.5855 419.616 73.2192 419.875 72.9932C420.001 72.8838 420.136 72.7855 420.279 72.6995V70.5412C420.217 70.4977 420.16 70.4492 420.106 70.3961C419.958 70.2475 419.792 70.0064 419.792 69.6757C419.792 69.6437 419.798 69.612 419.81 69.5824C419.822 69.5528 419.84 69.5259 419.863 69.5032Z" fill="white"/>
<path d="M339.776 86.6411C344.194 77.9825 353.093 72.5321 362.814 72.5321H386.482C396.202 72.5321 405.102 77.9825 409.52 86.6411L413.097 93.6535H336.198L339.776 86.6411Z" fill="#D3D5FF"/>
<rect x="368.183" y="59.5144" width="12.9314" height="13.4487" fill="#EDB387"/>
<path d="M376.729 79.7736H372.785L371.027 73.394H378.786L376.729 79.7736Z" fill="#545CFF"/>
<path d="M371.415 93.6537L373.355 79.7739H375.956L377.924 93.6537H371.415Z" fill="#545CFF"/>
<path d="M367.722 69.3424L362.061 73.1645L372.489 81.8428L374.475 73.9289L367.722 69.3424Z" fill="#AEAFD6"/>
<path d="M381.48 69.3424L387.062 73.1645L376.779 81.8428L374.821 73.9289L381.48 69.3424Z" fill="#AEAFD6"/>
<path d="M368.176 68.9114L362.751 72.5753L372.744 80.8945L374.648 73.3081L368.176 68.9114Z" fill="#D3D5FF"/>
<path d="M381.12 68.9114L386.545 72.5753L376.551 80.8945L374.648 73.3081L381.12 68.9114Z" fill="#D3D5FF"/>
<path d="M376.339 67.6976C372.392 68.3523 369.257 65.386 368.183 63.8211V58.9971H381.114V64.8118C379.936 66.7414 377.44 67.5396 376.339 67.6976Z" fill="#D79761"/>
<path fill-rule="evenodd" clip-rule="evenodd" d="M374.648 64.9889C371.846 64.9889 365.941 61.9974 364.217 54.6869C362.608 53.8823 359.398 51.5833 359.432 48.8246C359.648 48.0631 360.493 46.997 362.148 48.8246L362.449 38.5657L374.648 35.9363V35.9363L386.847 38.5657L387.149 48.8247C388.804 46.997 389.649 48.0632 389.864 48.8247C389.899 51.5834 386.689 53.8823 385.079 54.6869C383.355 61.9975 377.364 64.989 374.648 64.989V64.9889Z" fill="#EDB387"/>
<path d="M363.731 49.7895C361.179 49.3757 359.952 44.2002 359.377 41.7289C357.463 33.4958 364.248 29.4009 368.429 29.4009C377.154 24.1249 383.504 26.745 387.869 32.0734C392.235 37.4018 389.349 45.0911 387.869 46.298C387.249 50.1602 385.599 50.7522 384.852 50.5654V46.5998C382.024 43.3583 372.725 40.0478 368.429 38.7978C367.119 42.7634 364.751 44.7606 363.731 45.2635V49.7895Z" fill="#0E1529"/>
<defs>
<linearGradient id="paint0_linear_310_1343" x1="325.854" y1="161.759" x2="326.018" y2="166.339" gradientUnits="userSpaceOnUse">
<stop stop-color="#9E3DFF"/>
<stop offset="1" stop-color="#3840FF"/>
</linearGradient>
<linearGradient id="paint1_linear_310_1343" x1="342.233" y1="131.844" x2="368.364" y2="181.67" gradientUnits="userSpaceOnUse">
<stop stop-color="#9E3DFF"/>
<stop offset="1" stop-color="#3840FF"/>
</linearGradient>
<linearGradient id="paint2_linear_310_1343" x1="0" y1="0" x2="6.46513" y2="6.56373" gradientUnits="userSpaceOnUse">
<stop stop-color="#9E3DFF"/>
<stop offset="1" stop-color="#3840FF"/>
</linearGradient>
<linearGradient id="paint3_linear_310_1343" x1="390.942" y1="54.2556" x2="393.455" y2="73.659" gradientUnits="userSpaceOnUse">
<stop stop-color="#9E3DFF"/>
<stop offset="1" stop-color="#3840FF"/>
</linearGradient>
<linearGradient id="paint4_linear_310_1343" x1="314.215" y1="1.06458" x2="318.304" y2="32.6392" gradientUnits="userSpaceOnUse">
<stop stop-color="#9E3DFF"/>
<stop offset="1" stop-color="#3840FF"/>
</linearGradient>
</defs>
</svg>
