<svg width="38" height="27" viewBox="0 0 38 27" fill="none" xmlns="http://www.w3.org/2000/svg">
<path d="M24.1109 26.7605L27.6599 22.8131L25.0525 20.6041C26.501 18.5036 27.2977 15.9686 27.2977 13.325V13.2526C27.2977 6.04593 21.6845 0.21543 13.8622 0.21543C6.03996 0.21543 0.354313 6.11836 0.354313 13.325V13.3974C0.354313 20.6041 5.96753 26.4346 13.7898 26.4346C16.6145 26.4346 19.1857 25.6379 21.3224 24.2617L24.1109 26.7605ZM13.8622 21.2921C9.37167 21.2921 6.18481 17.6707 6.18481 13.325V13.2526C6.18481 8.90686 9.29924 5.35786 13.7898 5.35786C18.2804 5.35786 21.4672 8.97929 21.4672 13.325V13.3974C21.4672 14.6649 21.25 15.8238 20.7792 16.874L16.6145 13.1077L13.0655 17.0913L17.194 20.6041C16.2162 21.0386 15.0935 21.2921 13.8622 21.2921ZM31.4482 26H37.3149V20.2057H31.4482V26Z" fill="url(#paint0_linear_511_1247)"/>
<defs>
<linearGradient id="paint0_linear_511_1247" x1="-2" y1="-9" x2="41.342" y2="33.6358" gradientUnits="userSpaceOnUse">
<stop stop-color="#9E3DFF"/>
<stop offset="1" stop-color="#3840FF"/>
</linearGradient>
</defs>
</svg>
