<svg width="24" height="22" viewBox="0 0 24 22" fill="none" xmlns="http://www.w3.org/2000/svg">
<path d="M8.82274 6.62348C8.29284 7.43598 7.68788 8.64149 7.00785 10.24C6.81356 9.84258 6.65017 9.52244 6.5177 9.27957C6.38522 9.0367 6.20639 8.7563 5.98118 8.43836C5.75598 8.12043 5.53077 7.87094 5.30557 7.68989C5.08036 7.50884 4.80217 7.35429 4.47098 7.22623C4.1398 7.09817 3.77991 7.03414 3.39132 7.03414H0.423915C0.300273 7.03414 0.19871 6.9944 0.119226 6.91492C0.0397421 6.83543 0 6.73387 0 6.61023V4.06674C0 3.9431 0.0397421 3.84153 0.119226 3.76205C0.19871 3.68256 0.300273 3.64282 0.423915 3.64282H3.39132C5.59922 3.64282 7.40969 4.63637 8.82274 6.62348ZM23.7393 17.2081C23.7393 17.3318 23.6995 17.4333 23.62 17.5128L19.3809 21.752C19.3014 21.8314 19.1998 21.8712 19.0762 21.8712C18.9614 21.8712 18.862 21.8292 18.7781 21.7453C18.6942 21.6614 18.6523 21.5621 18.6523 21.4473V18.9038C18.3697 18.9038 17.9943 18.906 17.5262 18.9104C17.0582 18.9148 16.7005 18.9192 16.4532 18.9236C16.2059 18.9281 15.8836 18.9236 15.4862 18.9104C15.0887 18.8972 14.7752 18.8751 14.5456 18.8442C14.316 18.8132 14.0334 18.7669 13.6978 18.7051C13.3622 18.6432 13.084 18.5616 12.8632 18.46C12.6424 18.3584 12.3863 18.2326 12.0948 18.0824C11.8034 17.9323 11.5429 17.7557 11.3132 17.5525C11.0836 17.3494 10.8408 17.1132 10.5846 16.8438C10.3285 16.5744 10.0812 16.2675 9.84278 15.9231C10.3638 15.1018 10.9644 13.8963 11.6444 12.3066C11.8387 12.704 12.0021 13.0242 12.1346 13.267C12.267 13.5099 12.4459 13.7903 12.6711 14.1082C12.8963 14.4262 13.1215 14.6757 13.3467 14.8567C13.5719 15.0378 13.8501 15.1923 14.1813 15.3204C14.5125 15.4484 14.8724 15.5125 15.261 15.5125H18.6523V12.969C18.6523 12.8453 18.692 12.7438 18.7715 12.6643C18.851 12.5848 18.9525 12.545 19.0762 12.545C19.1822 12.545 19.2881 12.5892 19.3941 12.6775L23.62 16.9034C23.6995 16.9829 23.7393 17.0845 23.7393 17.2081ZM23.7393 5.33848C23.7393 5.46213 23.6995 5.56369 23.62 5.64317L19.3809 9.88233C19.3014 9.96181 19.1998 10.0016 19.0762 10.0016C18.9614 10.0016 18.862 9.9596 18.7781 9.8757C18.6942 9.7918 18.6523 9.69245 18.6523 9.57764V7.03414H15.261C14.837 7.03414 14.4529 7.10038 14.1084 7.23285C13.764 7.36533 13.4593 7.56404 13.1944 7.82899C12.9294 8.09393 12.7042 8.3655 12.5187 8.6437C12.3333 8.92189 12.1346 9.26412 11.9226 9.67037C11.64 10.2179 11.2956 10.973 10.8893 11.9357C10.6332 12.5185 10.4146 13.0087 10.2336 13.4061C10.0525 13.8035 9.81408 14.2672 9.51822 14.7971C9.22237 15.327 8.93976 15.7686 8.67039 16.1218C8.40103 16.4751 8.07426 16.8416 7.69009 17.2214C7.30592 17.6011 6.90849 17.9036 6.49783 18.1288C6.08716 18.354 5.61688 18.5395 5.08698 18.6852C4.55709 18.8309 3.99187 18.9038 3.39132 18.9038H0.423915C0.300273 18.9038 0.19871 18.864 0.119226 18.7845C0.0397421 18.7051 0 18.6035 0 18.4799V15.9364C0 15.8127 0.0397421 15.7112 0.119226 15.6317C0.19871 15.5522 0.300273 15.5125 0.423915 15.5125H3.39132C3.81524 15.5125 4.19941 15.4462 4.54384 15.3137C4.88827 15.1813 5.19296 14.9826 5.45791 14.7176C5.72286 14.4527 5.94806 14.1811 6.13352 13.9029C6.31899 13.6247 6.5177 13.2825 6.72966 12.8762C7.01227 12.3287 7.3567 11.5736 7.76295 10.6109C8.01906 10.028 8.23765 9.53789 8.41869 9.14047C8.59974 8.74305 8.83819 8.2794 9.13405 7.7495C9.42991 7.21961 9.71252 6.77803 9.98188 6.42477C10.2512 6.0715 10.578 5.70499 10.9622 5.32524C11.3464 4.94548 11.7438 4.643 12.1544 4.41779C12.5651 4.19259 13.0354 4.00712 13.5653 3.8614C14.0952 3.71568 14.6604 3.64282 15.261 3.64282H18.6523V1.09933C18.6523 0.975688 18.692 0.874125 18.7715 0.794641C18.851 0.715157 18.9525 0.675415 19.0762 0.675415C19.1822 0.675415 19.2881 0.719573 19.3941 0.807889L23.62 5.03379C23.6995 5.11328 23.7393 5.21484 23.7393 5.33848Z" fill="white"/>
</svg>
