<svg width="33" height="33" viewBox="0 0 33 33" fill="none" xmlns="http://www.w3.org/2000/svg">
<g clip-path="url(#clip0_166_1894)">
<path fill-rule="evenodd" clip-rule="evenodd" d="M13.8508 20.1882C12.1408 20.1279 11.0749 18.9038 10.7924 17.9057C11.2669 17.9961 11.7378 17.9773 12.201 17.8643C12.2123 17.8643 12.2236 17.853 12.2462 17.8417C11.3197 17.627 10.6078 17.1336 10.1106 16.3351C9.78296 15.804 9.62476 15.224 9.62853 14.5875C10.0918 14.836 10.5739 14.9716 11.0899 14.9867C10.3931 14.4858 9.92608 13.8304 9.73776 12.9942C9.54944 12.1581 9.66996 11.3633 10.088 10.6101C11.8771 12.708 14.1295 13.8568 16.8752 14.0413C16.8564 13.9133 16.8376 13.7965 16.8225 13.6835C16.7321 12.9114 16.8865 12.1882 17.3008 11.5328C17.8244 10.7117 18.5702 10.2033 19.5306 10.0488C20.6379 9.86806 21.6022 10.1807 22.4082 10.9641C22.4609 11.0168 22.5099 11.0357 22.5852 11.0168C23.2594 10.8699 23.896 10.6251 24.4986 10.2824C24.5137 10.2748 24.5287 10.2673 24.5438 10.2598C24.5438 10.2598 24.5513 10.2598 24.5664 10.2598C24.3065 11.0244 23.8319 11.6119 23.1577 12.0488C23.7943 11.9773 24.4007 11.8078 24.9882 11.5554C24.992 11.563 24.9958 11.5667 25.0033 11.5705C24.879 11.7362 24.7547 11.9057 24.6267 12.0639C24.2764 12.4933 23.8771 12.8737 23.4327 13.2014C23.395 13.2315 23.3762 13.2541 23.3799 13.3068C23.3988 13.7927 23.3799 14.2824 23.3197 14.7645C23.1916 15.7852 22.9091 16.7607 22.4722 17.691C22.0202 18.6515 21.4327 19.5215 20.6944 20.2824C19.444 21.578 17.9336 22.4104 16.1747 22.7984C15.572 22.9302 14.9619 22.998 14.3442 23.0168C12.4496 23.0733 10.6944 22.6025 9.08239 21.6044C9.06356 21.5931 9.04096 21.578 9.0033 21.5517C10.1521 21.676 11.2406 21.5291 12.2914 21.0959C12.8489 20.8699 13.3649 20.5686 13.8545 20.1844L13.8508 20.1882Z" fill="#9B9C9C"/>
</g>
<rect x="0.589286" y="0.589286" width="31.8214" height="31.8214" rx="15.9107" stroke="#9B9C9C" stroke-width="1.17857"/>
<defs>
<clipPath id="clip0_166_1894">
<rect width="16" height="13.0207" fill="white" transform="translate(9 10)"/>
</clipPath>
</defs>
</svg>
